<svg width="201" height="200" viewBox="0 0 201 200" fill="none" xmlns="http://www.w3.org/2000/svg">
<path d="M6.55402 85.7453L7.13461 82.3384L7.3712 82.3787L7.35104 82.497C7.32954 82.6232 7.35804 82.7417 7.43655 82.8524C7.49928 82.9605 7.59491 83.0661 7.72342 83.1691C7.83885 83.2537 7.96351 83.3318 8.0974 83.4033C8.23398 83.459 8.35747 83.4963 8.46788 83.5151L21.6459 85.7609C22.1506 85.8469 22.6052 85.9893 23.0095 86.188C23.4139 86.3868 23.7786 86.6275 24.1038 86.9101C24.4474 87.1797 24.7462 87.474 25.0001 87.7932C25.2726 88.0994 25.5108 88.4159 25.7148 88.7428C26.1882 89.4889 26.5508 90.3136 26.8026 91.2167L26.5932 91.3028C26.293 90.6835 25.911 90.1153 25.4473 89.598C25.0517 89.1573 24.5496 88.7228 23.9409 88.2944C23.3322 87.8661 22.5941 87.578 21.7266 87.4302L8.19371 85.1239C8.08331 85.1051 7.95444 85.0994 7.80711 85.1067C7.65978 85.1141 7.5163 85.1464 7.37668 85.2038C7.22398 85.2427 7.10013 85.3028 7.00514 85.3839C6.89438 85.4625 6.82959 85.5569 6.81077 85.6673L6.79061 85.7856L6.55402 85.7453Z" fill="#363432"/>
<path d="M24.3202 76.9478L24.3621 76.8353C24.4068 76.7154 24.4084 76.5965 24.3669 76.4786C24.3105 76.3551 24.2335 76.241 24.1359 76.1364C24.0438 76.0167 23.9359 75.9168 23.8122 75.8365C23.694 75.7413 23.5749 75.6713 23.455 75.6266L11.4228 71.1441C11.3179 71.105 11.1896 71.0828 11.0379 71.0775C10.8917 71.0572 10.7448 71.0622 10.5969 71.0925C10.4546 71.1078 10.3292 71.1464 10.2207 71.2084C10.0972 71.2649 10.0132 71.3531 9.96848 71.473L9.92659 71.5855L9.70169 71.5017L12.9274 62.8431L15.019 63.6223L14.9352 63.8472C14.5792 63.7487 14.2291 63.7719 13.8848 63.9168C13.5256 64.0562 13.251 64.3808 13.0611 64.8905L11.377 69.411L17.0669 71.5308L18.4578 67.7975C18.5863 67.4526 18.5874 67.1286 18.4613 66.8255C18.3408 66.5074 18.1381 66.2953 17.8532 66.1892L17.937 65.9643L20.7482 67.0116L20.6644 67.2365C20.3946 67.136 20.1203 67.1619 19.8416 67.3141C19.5629 67.4664 19.3565 67.7225 19.2224 68.0823L17.8316 71.8157L24.6461 74.3544L26.481 69.4291C26.5871 69.1442 26.6118 68.8717 26.5551 68.6115C26.4983 68.3513 26.4051 68.1202 26.2755 67.9183C26.1364 67.6957 25.9731 67.5154 25.7855 67.3772C25.5886 67.2184 25.4151 67.1111 25.2652 67.0553L25.349 66.8304L27.9803 67.8107L24.5451 77.0316L24.3202 76.9478Z" fill="#363432"/>
<path d="M28.9639 37.0859C28.7757 37.3447 28.7257 37.6447 28.814 37.9858C28.9023 38.3269 29.0523 38.6239 29.2641 38.8768L38.3427 50.8776L26.5904 46.9622L33.9588 56.9482L19.729 52.0328C19.436 51.9187 19.112 51.8611 18.7567 51.86C18.4109 51.8459 18.1627 51.9424 18.0121 52.1495L17.818 52.0084L19.8221 49.2519L20.0162 49.393C19.8939 49.5612 19.8615 49.7553 19.9192 49.9753C19.9734 50.1729 20.104 50.347 20.311 50.4975C20.3757 50.5446 20.4693 50.5928 20.5916 50.6422L30.6569 54.1026L23.3891 44.1007L35.0408 48.032L28.6925 39.4998C28.6666 39.4809 28.6196 39.4368 28.5513 39.3675C28.4796 39.2757 28.4178 39.211 28.366 39.1734C28.1848 39.0417 28.0049 38.9899 27.8261 39.0182C27.6343 39.037 27.5008 39.0982 27.4255 39.2018L27.2314 39.0606L28.7697 36.9447L28.9639 37.0859Z" fill="#363432"/>
<path d="M47.2746 40.642L47.3687 40.5674C47.469 40.4879 47.5319 40.387 47.5575 40.2647C47.5731 40.1298 47.5662 39.9924 47.5369 39.8523C47.5201 39.7023 47.4795 39.5609 47.4151 39.4282C47.3633 39.2855 47.2977 39.164 47.2182 39.0637L39.2433 29.0005C39.1738 28.9128 39.0755 28.8273 38.9484 28.7443C38.8339 28.6513 38.7055 28.5795 38.5633 28.5289C38.4337 28.4683 38.3064 28.4365 38.1815 28.4334C38.0466 28.4178 37.929 28.4497 37.8287 28.5292L37.7346 28.6038L37.5856 28.4157L44.8273 22.6768L46.2136 24.4261L46.0255 24.5751C45.7718 24.3066 45.4602 24.1452 45.0907 24.0911C44.7112 24.0243 44.3082 24.1599 43.8819 24.4978L40.1011 27.494L43.8724 32.2528L46.9948 29.7784C47.2832 29.5498 47.4519 29.2732 47.5009 28.9486C47.5624 28.614 47.4987 28.3276 47.3099 28.0894L47.498 27.9403L49.3613 30.2915L49.1732 30.4406C48.9943 30.2149 48.7463 30.095 48.429 30.0811C48.1117 30.0671 47.8026 30.1794 47.5016 30.4179L44.3792 32.8923L48.8958 38.5917L53.0151 35.3272C53.2534 35.1384 53.4156 34.918 53.5017 34.666C53.5878 34.414 53.6277 34.1681 53.6213 33.9282C53.6175 33.6658 53.5711 33.4269 53.4821 33.2116C53.3958 32.9738 53.3029 32.7922 53.2035 32.6668L53.3916 32.5178L55.1357 34.7185L47.4237 40.8301L47.2746 40.642Z" fill="#363432"/>
<path d="M64.4841 28.9592L64.5911 28.9049L64.6997 29.1189L61.6816 30.6496L61.5731 30.4355L61.6801 30.3812C61.78 30.3306 61.851 30.2407 61.8932 30.1117C61.9354 29.9827 61.9561 29.8466 61.9553 29.7035C61.9687 29.5531 61.9572 29.4065 61.9206 29.2636C61.8767 29.1064 61.8259 28.9708 61.768 28.8566L55.982 17.448C55.9313 17.3481 55.8591 17.2412 55.7655 17.1272C55.6718 17.0132 55.5603 16.9173 55.4311 16.8393C55.3161 16.7541 55.1977 16.6975 55.0759 16.6696C54.9469 16.6274 54.8324 16.6316 54.7325 16.6823L54.6255 16.7366L54.517 16.5225L58.2414 14.6337C59.6683 13.91 60.9082 13.631 61.961 13.7967C63.0281 13.9552 63.8367 14.5767 64.3867 15.6612C64.6617 16.2034 64.8114 16.7285 64.8357 17.2364C64.8671 17.7228 64.809 18.1918 64.6613 18.6435C64.5064 19.0808 64.2691 19.4972 63.9493 19.8926C63.6366 20.2665 63.2736 20.612 62.8604 20.9292L65.5957 22.5021C66.2562 22.8847 66.9202 23.2566 67.5877 23.6177C68.248 23.9646 68.912 24.3364 69.5797 24.7333C69.752 24.8254 69.935 24.9209 70.1288 25.02C70.3368 25.1118 70.5376 25.1894 70.7312 25.2527C70.939 25.3088 71.136 25.3434 71.3221 25.3567C71.5153 25.3484 71.6903 25.3045 71.8473 25.2249L71.9558 25.4389L71.0354 25.9057C70.4647 26.1952 69.925 26.2984 69.4165 26.2155C68.915 26.111 68.4489 25.9348 68.0181 25.6868C66.8983 25.0707 65.7713 24.4403 64.6371 23.7956C63.5171 23.1437 62.4043 22.506 61.2988 21.8826C61.1346 21.948 60.9561 22.0206 60.7634 22.1004C60.5777 22.1587 60.3991 22.2134 60.2277 22.2644L63.2021 28.1293C63.26 28.2435 63.3394 28.3646 63.4403 28.4929C63.534 28.6068 63.6383 28.7064 63.7533 28.7916C63.8825 28.8696 64.0045 28.9333 64.1193 28.9827C64.2483 29.0249 64.3699 29.0171 64.4841 28.9592ZM57.1121 16.1213L59.8694 21.5581L59.9765 21.5038C60.0979 21.4602 60.2835 21.384 60.5333 21.2752C60.7901 21.145 61.1041 20.9857 61.4751 20.7976C61.7748 20.6456 62.067 20.4436 62.3518 20.1915C62.6436 19.9179 62.8779 19.6017 63.0547 19.243C63.2386 18.8627 63.3328 18.4471 63.3374 17.9963C63.3563 17.5382 63.2282 17.0381 62.9532 16.4958C62.6782 15.9536 62.3468 15.5655 61.9591 15.3316C61.5856 15.0904 61.1627 14.964 60.6904 14.9524C60.2323 14.9336 59.7283 15.0187 59.1784 15.2079C58.6285 15.3971 58.0468 15.6473 57.4332 15.9585L57.1121 16.1213Z" fill="#363432"/>
<path d="M74.7838 24.535L74.8982 24.4987C75.0202 24.46 75.1148 24.388 75.1821 24.2827C75.2446 24.1621 75.2869 24.0311 75.3092 23.8898C75.3467 23.7436 75.3589 23.597 75.3458 23.4501C75.348 23.2983 75.3297 23.1614 75.291 23.0394L71.4053 10.8015C71.3714 10.6947 71.3098 10.58 71.2205 10.4573C71.1464 10.3297 71.0519 10.217 70.9369 10.1192C70.8372 10.0166 70.7295 9.94169 70.6137 9.89449C70.4932 9.83204 70.3719 9.82019 70.2499 9.85892L70.1356 9.89524L70.0629 9.66649L73.3569 8.62063L73.4295 8.84938L73.3151 8.88569C73.1931 8.92443 73.1009 9.00407 73.0385 9.12462C72.9712 9.22992 72.9264 9.35325 72.9041 9.49462C72.8819 9.63599 72.8697 9.78256 72.8675 9.93433C72.8806 10.0813 72.904 10.2081 72.9379 10.3148L77.0124 23.1475L82.022 21.557C82.3117 21.465 82.5416 21.3164 82.7115 21.1114C82.8814 20.9064 83.0035 20.6829 83.0778 20.4411C83.1625 20.1792 83.1991 19.9242 83.1874 19.6761C83.1862 19.4079 83.1541 19.1746 83.0912 18.9764L83.3199 18.9038L84.2351 21.786L74.8564 24.7638L74.7838 24.535Z" fill="#363432"/>
<path d="M82.7447 6.1098L86.0304 5.69328L86.0606 5.93137C85.9515 5.96133 85.8544 6.02203 85.7692 6.11347C85.684 6.2049 85.6515 6.32999 85.6716 6.48872C85.6817 6.56808 85.7166 6.65237 85.7763 6.74157L90.1415 12.5507L92.8185 6.18753C92.8659 6.0525 92.8935 5.95223 92.9013 5.88672C92.925 5.81921 92.9308 5.73783 92.9188 5.64259C92.8548 5.39265 92.7395 5.24599 92.5727 5.20262C92.4218 5.15724 92.3305 5.13656 92.2987 5.14059L92.2685 4.90249L94.8161 4.57954L94.8463 4.81763C94.6082 4.84782 94.3813 5.0298 94.1656 5.36358C93.9637 5.67947 93.7946 5.99928 93.6582 6.323L90.7589 13.2224L91.5406 19.3891C91.5567 19.516 91.5897 19.6489 91.6395 19.7878C91.7052 19.9246 91.7789 20.0604 91.8605 20.1952C91.9401 20.3142 92.0335 20.4152 92.1409 20.4984C92.2482 20.5815 92.3653 20.6151 92.4923 20.599L92.6113 20.5839L92.6415 20.822L89.2368 21.2536L89.2066 21.0155L89.3256 21.0004C89.4526 20.9843 89.5587 20.9305 89.6439 20.8391C89.7271 20.7318 89.7923 20.6106 89.8397 20.4756C89.901 20.3227 89.9384 20.1728 89.9521 20.0259C89.9637 19.8631 89.9615 19.7183 89.9454 19.5913L89.1908 13.6389L84.5244 7.55345C84.429 7.43652 84.3156 7.30574 84.1844 7.16109C84.0531 7.01645 83.915 6.88075 83.7699 6.75399C83.6248 6.62723 83.4748 6.52529 83.3199 6.44816C83.1629 6.35516 83.021 6.3167 82.894 6.3328L82.7749 6.34789L82.7447 6.1098Z" fill="#363432"/>
<path d="M127.248 14.1149C128.017 14.3374 128.663 14.6662 129.187 15.101C129.73 15.525 130.145 16.0199 130.431 16.5858C130.721 17.1363 130.887 17.7424 130.928 18.404C130.985 19.0702 130.911 19.7567 130.707 20.4637C130.489 21.2167 130.165 21.8727 129.737 22.4315C129.313 22.9751 128.806 23.4029 128.216 23.715C127.641 24.0316 127.011 24.2238 126.325 24.2916C125.639 24.3595 124.927 24.2866 124.189 24.0729C123.467 23.8637 122.844 23.5416 122.32 23.1068C121.816 22.661 121.414 22.1529 121.113 21.5826C120.811 21.0123 120.622 20.3995 120.546 19.7443C120.484 19.0935 120.539 18.4432 120.711 17.7933L119.143 17.3392L118.215 20.5435C118.18 20.6665 118.157 20.8015 118.148 20.9488C118.139 21.096 118.137 21.2454 118.143 21.3971C118.169 21.5378 118.207 21.6654 118.257 21.7799C118.312 21.879 118.39 21.9518 118.493 21.9984L118.427 22.2289L115.568 21.4009L115.635 21.1704C115.747 21.1862 115.853 21.1668 115.952 21.1122C116.071 21.0467 116.179 20.9614 116.276 20.8562C116.377 20.7357 116.463 20.6108 116.534 20.4814C116.605 20.3519 116.658 20.2258 116.694 20.1028L118.65 13.3484C118.708 13.1487 118.716 12.8926 118.673 12.5804C118.65 12.2572 118.535 12.0491 118.329 11.9561L118.396 11.7256L121.231 12.5469L121.164 12.7774C120.925 12.7413 120.709 12.8537 120.517 13.1146C120.345 13.3645 120.23 13.5894 120.172 13.7891L119.364 16.5785L120.977 17.0459C121.234 16.504 121.561 16.0074 121.959 15.5561C122.36 15.0894 122.827 14.7164 123.357 14.437C123.892 14.1422 124.485 13.9642 125.136 13.9028C125.791 13.8261 126.495 13.8968 127.248 14.1149ZM124.769 23.3662C125.326 23.5111 125.838 23.5262 126.305 23.4114C126.791 23.2857 127.218 23.0762 127.586 22.7831C127.959 22.4745 128.273 22.1075 128.53 21.6821C128.791 21.2413 128.992 20.775 129.135 20.2832C129.3 19.7146 129.373 19.1445 129.355 18.573C129.342 17.9862 129.232 17.4462 129.025 16.9532C128.838 16.4492 128.557 16.0097 128.182 15.6347C127.808 15.2598 127.336 14.9899 126.768 14.8252C126.199 14.6605 125.672 14.641 125.186 14.7667C124.719 14.8815 124.292 15.0909 123.904 15.395C123.536 15.6882 123.212 16.0606 122.931 16.5123C122.67 16.9531 122.468 17.4194 122.326 17.9112C122.179 18.4184 122.099 18.9532 122.086 19.5158C122.088 20.0829 122.175 20.6162 122.347 21.1157C122.534 21.6196 122.818 22.0767 123.199 22.4869C123.6 22.8861 124.123 23.1793 124.769 23.3662Z" fill="#363432"/>
<path d="M147.82 26.3653C147.683 26.6002 147.506 26.7931 147.288 26.944C147.071 27.0949 146.833 27.2158 146.576 27.3068C146.342 27.3921 146.087 27.4474 145.813 27.4727C145.547 27.4842 145.304 27.4721 145.084 27.4364C145.295 27.6149 145.492 27.832 145.676 28.0877C145.875 28.3514 146.025 28.6336 146.127 28.9342C146.244 29.2429 146.29 29.5757 146.267 29.9327C146.252 30.2759 146.136 30.6341 145.918 31.0073C145.805 31.2008 145.62 31.4075 145.362 31.6275C145.126 31.8417 144.818 32.0047 144.438 32.1164C144.08 32.2224 143.648 32.2483 143.142 32.1942C142.658 32.1343 142.106 31.923 141.484 31.5602L136.923 28.8999L137.044 28.6926C137.154 28.7571 137.275 28.772 137.407 28.7375C137.538 28.7029 137.663 28.6465 137.783 28.5682C137.917 28.4979 138.034 28.4086 138.134 28.3004C138.242 28.1783 138.329 28.062 138.393 27.9514L141.924 21.898C142.053 21.6768 142.128 21.4056 142.149 21.0843C142.191 20.7572 142.102 20.5292 141.881 20.4002L142.002 20.1929L146.231 22.6597C146.728 22.9499 147.11 23.2649 147.375 23.6047C147.661 23.9386 147.855 24.2738 147.955 24.6101C148.077 24.9406 148.114 25.2585 148.066 25.5637C148.039 25.8631 147.957 26.1303 147.82 26.3653ZM141.82 25.1717L143.417 26.1028C143.818 26.3366 144.173 26.4886 144.484 26.5588C144.817 26.6233 145.111 26.6279 145.365 26.5726C145.62 26.5174 145.838 26.4131 146.02 26.2599C146.216 26.1148 146.374 25.9386 146.495 25.7313C146.592 25.5655 146.644 25.3645 146.652 25.1284C146.66 24.8923 146.608 24.6487 146.495 24.3976C146.404 24.1408 146.256 23.8874 146.049 23.6375C145.843 23.3876 145.574 23.1659 145.243 22.9724L143.646 22.0413L141.82 25.1717ZM141.373 30.6066C141.539 30.7033 141.754 30.8104 142.019 30.9279C142.306 31.0396 142.599 31.1087 142.899 31.1352C143.22 31.1559 143.528 31.1041 143.823 30.9797C144.14 30.8495 144.407 30.5979 144.624 30.2247C144.858 29.8239 144.93 29.4306 144.84 29.0448C144.75 28.659 144.583 28.3112 144.338 28.0014C144.114 27.6858 143.849 27.4106 143.541 27.1756C143.234 26.9407 142.99 26.7708 142.81 26.666L141.421 25.8558L139.342 29.4215L141.373 30.6066Z" fill="#363432"/>
<path d="M155.035 35.1269C154.704 35.583 154.442 36.0701 154.249 36.5881C154.068 37.0943 153.971 37.6025 153.959 38.1126C153.959 38.6335 154.061 39.15 154.265 39.662C154.479 40.1623 154.828 40.634 155.312 41.0772C155.571 41.315 155.875 41.5282 156.223 41.7169C156.594 41.9045 156.968 42.0411 157.345 42.1266C157.722 42.212 158.097 42.2409 158.47 42.2133C158.865 42.1848 159.217 42.0732 159.525 41.8785L159.685 42.0244L158.469 43.3515C158.398 43.2867 158.294 43.2346 158.156 43.1953C158.03 43.1668 157.876 43.1339 157.693 43.0966C157.327 43.022 156.868 42.8834 156.316 42.6811C155.774 42.4669 155.173 42.0571 154.513 41.4518C153.982 40.9654 153.545 40.4239 153.202 39.8273C152.87 39.2416 152.668 38.6219 152.594 37.9683C152.52 37.3147 152.598 36.6375 152.828 35.9367C153.07 35.2467 153.504 34.5596 154.131 33.8754C154.531 33.4389 155.007 33.0614 155.559 32.7429C156.124 32.4351 156.715 32.2395 157.334 32.1558C157.976 32.0712 158.636 32.133 159.313 32.3412C159.99 32.5495 160.659 32.9563 161.32 33.5616C161.91 34.1021 162.331 34.6726 162.584 35.2731C162.848 35.8844 162.96 36.4967 162.918 37.11C162.889 37.7342 162.724 38.3529 162.422 38.9663C162.12 39.5796 161.705 40.1753 161.175 40.7533L155.035 35.1269ZM160.714 34.0807C160.301 33.7024 159.866 33.4552 159.408 33.3393C158.961 33.2342 158.513 33.2142 158.063 33.2791C157.613 33.3441 157.177 33.4876 156.757 33.7098C156.336 33.932 155.957 34.1921 155.619 34.4899L160.662 39.111C160.963 38.7581 161.207 38.3625 161.391 37.9241C161.588 37.4965 161.705 37.0611 161.742 36.6178C161.779 36.1745 161.715 35.7357 161.549 35.3013C161.393 34.8551 161.115 34.4482 160.714 34.0807Z" fill="#363432"/>
<path d="M167.467 55.9809C167.531 56.0728 167.644 56.1504 167.805 56.2136C167.966 56.2768 168.119 56.2581 168.263 56.1575C168.29 56.1392 168.333 56.0894 168.393 56.0083C168.476 55.9311 168.552 55.8297 168.62 55.704L172.783 49.086L164.77 50.8107C164.076 50.9627 163.501 50.7106 163.043 50.0543L162.741 49.6212L162.938 49.4839C163.066 49.6677 163.295 49.8005 163.625 49.8824C163.978 49.9683 164.331 49.9854 164.685 49.9336L172.813 48.2465C173.029 48.1932 173.19 48.1299 173.295 48.0567C173.452 47.9469 173.458 47.787 173.311 47.577L173.508 47.4397L174.62 49.0345L169.646 57.0075C169.513 57.2367 169.388 57.5189 169.271 57.8542C169.176 58.1935 169.183 58.4419 169.293 58.5994L169.096 58.7367L167.271 56.1182L167.467 55.9809Z" fill="#363432"/>
<path d="M177.578 73.3444C177.459 73.3922 177.332 73.4607 177.195 73.55C177.079 73.6483 176.974 73.751 176.879 73.8581C176.784 73.9652 176.71 74.0812 176.657 74.2061C176.61 74.3458 176.604 74.4602 176.64 74.5492L176.417 74.6387L175.271 71.7883L175.494 71.6988C175.536 71.8027 175.612 71.8843 175.722 71.9436C175.847 71.9968 175.98 72.0293 176.123 72.041C176.28 72.0467 176.432 72.0375 176.578 72.0135C176.738 71.9835 176.877 71.9447 176.996 71.8969L182.341 69.7491L175.022 66.5343L174.866 66.5969C174.748 66.6446 174.62 66.7132 174.483 66.8025C174.362 66.8859 174.253 66.9812 174.158 67.0883C174.064 67.1954 173.986 67.304 173.927 67.414C173.874 67.5389 173.868 67.6533 173.91 67.7572L173.687 67.8467L172.551 65.0185L172.773 64.929C172.815 65.033 172.891 65.1145 173.001 65.1738C173.126 65.2271 173.26 65.2595 173.402 65.2712C173.56 65.2769 173.711 65.2677 173.857 65.2437C174.017 65.2137 174.157 65.1749 174.276 65.1272L180.8 62.505C180.904 62.4632 181.017 62.4006 181.139 62.3173C181.261 62.2339 181.369 62.1386 181.464 62.0315C181.559 61.9244 181.625 61.8114 181.664 61.6925C181.717 61.5676 181.723 61.4532 181.681 61.3493L181.904 61.2598L183.04 64.0879L182.818 64.1774C182.77 64.0587 182.684 63.9726 182.559 63.9194C182.455 63.875 182.331 63.8469 182.189 63.8353C182.052 63.8385 181.911 63.8521 181.765 63.8761C181.62 63.9001 181.495 63.933 181.391 63.9747L176.069 66.1136L183.387 69.3285L183.521 69.2748C183.625 69.233 183.738 69.1704 183.859 69.087C183.981 69.0036 184.089 68.9084 184.184 68.8013C184.279 68.6942 184.346 68.5812 184.384 68.4622C184.438 68.3374 184.443 68.223 184.402 68.119L184.624 68.0296L185.77 70.88L185.547 70.9695C185.499 70.8507 185.41 70.7573 185.279 70.6891C185.169 70.6299 185.043 70.5944 184.9 70.5828C184.764 70.586 184.623 70.5996 184.477 70.6236C184.331 70.6476 184.207 70.6805 184.103 70.7222L177.578 73.3444Z" fill="#363432"/>
<path d="M189.57 86.0349C189.698 86.8893 189.658 87.6476 189.45 88.3098C189.261 88.9855 188.959 89.5646 188.546 90.0473C188.136 90.5457 187.637 90.9441 187.051 91.2424C186.465 91.5407 185.847 91.7385 185.199 91.8359C184.566 91.9309 183.925 91.9218 183.277 91.8087C182.632 91.7115 182.033 91.494 181.481 91.1562C180.931 90.8342 180.46 90.3952 180.069 89.839C179.679 89.2829 179.421 88.5934 179.298 87.7706C179.224 87.2801 179.275 86.7548 179.45 86.1946C179.643 85.6479 179.906 85.1392 180.24 84.6684L175.351 85.4022C175.224 85.4212 175.092 85.4572 174.954 85.5102C174.801 85.5656 174.666 85.6345 174.548 85.7167C174.434 85.8149 174.335 85.9106 174.252 86.004C174.171 86.1131 174.14 86.231 174.159 86.3576L173.922 86.3932L173.459 83.3078L173.696 83.2722C173.713 83.3829 173.776 83.4786 173.885 83.5593C173.994 83.64 174.117 83.7025 174.253 83.7468C174.391 83.8069 174.542 83.8409 174.705 83.8488C174.852 83.8591 174.989 83.8547 175.116 83.8357L187.362 81.9978C187.505 81.9764 187.638 81.9483 187.762 81.9135C187.905 81.8921 188.02 81.8506 188.108 81.7889C188.211 81.7248 188.286 81.6326 188.333 81.5124C188.398 81.4055 188.424 81.256 188.411 81.0638L188.649 81.0281L188.998 83.3541L187.954 83.5108C188.381 83.7703 188.73 84.1061 189.003 84.5183C189.293 84.9439 189.482 85.4494 189.57 86.0349ZM180.108 87.6732C180.207 88.2247 180.406 88.6883 180.705 89.064C181.004 89.4398 181.364 89.7337 181.784 89.9457C182.204 90.1577 182.653 90.2925 183.131 90.3503C183.625 90.4056 184.125 90.3953 184.631 90.3193C185.201 90.2338 185.751 90.0704 186.281 89.8291C186.811 89.5877 187.267 89.2847 187.649 88.9199C188.047 88.5528 188.347 88.1275 188.55 87.6441C188.77 87.1742 188.839 86.6623 188.756 86.1085C188.706 85.7762 188.593 85.4534 188.416 85.1402C188.242 84.8427 188.018 84.5852 187.742 84.3677C187.469 84.1659 187.155 84.0109 186.799 83.9025C186.461 83.8076 186.094 83.7898 185.699 83.8492L182.59 84.3158C182.162 84.3799 181.78 84.5263 181.442 84.755C181.12 84.9813 180.845 85.2491 180.616 85.5585C180.406 85.8813 180.255 86.2274 180.165 86.5969C180.075 86.9664 180.056 87.3251 180.108 87.6732Z" fill="#363432"/>
<path d="M181.958 103.423C181.83 103.412 181.686 103.416 181.524 103.435C181.377 103.455 181.238 103.491 181.105 103.544C180.972 103.597 180.854 103.659 180.752 103.731C180.648 103.818 180.592 103.918 180.582 104.03L180.343 104.009L180.597 100.996L180.836 101.016C180.827 101.128 180.859 101.227 180.932 101.313C181.019 101.417 181.124 101.506 181.246 101.581C181.385 101.657 181.524 101.717 181.665 101.761C181.822 101.806 181.964 101.834 182.091 101.845L189.098 102.436C189.21 102.446 189.339 102.44 189.485 102.421C189.631 102.401 189.771 102.365 189.904 102.311C190.037 102.258 190.147 102.188 190.235 102.099C190.337 102.027 190.393 101.935 190.402 101.824L190.642 101.844L190.387 104.857L190.148 104.837C190.159 104.709 190.121 104.594 190.033 104.49C189.96 104.404 189.862 104.323 189.74 104.249C189.617 104.19 189.485 104.139 189.344 104.095C189.203 104.051 189.077 104.024 188.965 104.015L186.071 103.77L185.611 109.223L188.505 109.467C188.617 109.477 188.745 109.471 188.892 109.452C189.038 109.432 189.177 109.396 189.31 109.342C189.442 109.305 189.552 109.242 189.639 109.154C189.742 109.082 189.798 108.982 189.809 108.855L190.048 108.875L189.794 111.888L189.555 111.868C189.566 111.74 189.527 111.625 189.44 111.521C189.367 111.435 189.269 111.354 189.147 111.28C189.025 111.205 188.893 111.146 188.752 111.102C188.61 111.074 188.483 111.055 188.372 111.046L181.365 110.454C181.237 110.443 181.092 110.447 180.93 110.466C180.784 110.486 180.644 110.522 180.511 110.575C180.379 110.628 180.261 110.69 180.159 110.762C180.055 110.849 179.998 110.949 179.989 111.061L179.75 111.04L180.004 108.027L180.243 108.047C180.234 108.159 180.265 108.258 180.338 108.344C180.426 108.448 180.531 108.537 180.653 108.612C180.791 108.688 180.931 108.748 181.071 108.792C181.228 108.837 181.37 108.865 181.498 108.876L184.822 109.156L185.282 103.704L181.958 103.423Z" fill="#363432"/>
<path d="M175.054 128.742L175.28 128.821C175.243 128.927 175.246 129.038 175.29 129.155C175.349 129.277 175.428 129.39 175.528 129.493C175.638 129.616 175.755 129.716 175.88 129.794C176.021 129.877 176.151 129.94 176.272 129.982L182.909 132.306C183.015 132.343 183.141 132.37 183.287 132.387C183.434 132.405 183.581 132.397 183.728 132.364C183.87 132.346 183.995 132.304 184.102 132.24C184.224 132.181 184.304 132.099 184.341 131.993L184.567 132.073L183.536 135.017L183.31 134.938C183.389 134.712 183.309 134.48 183.07 134.244C182.845 134.013 182.62 133.857 182.394 133.778L175.757 131.454C175.636 131.412 175.495 131.38 175.333 131.357C175.187 131.34 175.042 131.34 174.9 131.358C174.753 131.391 174.618 131.437 174.496 131.496C174.374 131.555 174.291 131.645 174.249 131.766L174.023 131.686L175.054 128.742ZM182.316 125.283C181.83 126.673 181.214 127.61 180.468 128.094C179.716 128.594 178.963 128.712 178.208 128.447C177.83 128.315 177.507 128.1 177.239 127.803C176.964 127.52 176.767 127.163 176.647 126.731C176.527 126.299 176.484 125.793 176.518 125.211C176.568 124.635 176.719 123.985 176.973 123.26L178.321 119.409L178.548 119.488C178.511 119.594 178.514 119.706 178.558 119.823C178.617 119.945 178.696 120.057 178.796 120.16C178.905 120.283 179.022 120.384 179.148 120.461C179.288 120.544 179.419 120.607 179.54 120.649L186.177 122.973C186.282 123.01 186.408 123.037 186.555 123.055C186.701 123.072 186.848 123.064 186.996 123.031C187.137 123.013 187.262 122.972 187.369 122.908C187.492 122.849 187.571 122.767 187.608 122.661L187.835 122.74L186.804 125.685L186.577 125.606C186.657 125.379 186.577 125.148 186.337 124.911C186.113 124.68 185.888 124.525 185.661 124.446L182.943 123.494L182.316 125.283ZM177.736 123.476C177.387 124.473 177.295 125.246 177.458 125.795C177.632 126.364 177.961 126.733 178.444 126.903C178.716 126.998 179.001 127.03 179.3 126.999C179.614 126.973 179.914 126.867 180.2 126.679C180.496 126.511 180.768 126.267 181.016 125.947C181.279 125.632 181.492 125.241 181.656 124.772L182.195 123.232L178.299 121.868L177.736 123.476Z" fill="#363432"/>
<path d="M173.443 143.163C172.94 142.909 172.418 142.727 171.876 142.619C171.348 142.52 170.83 142.504 170.325 142.574C169.811 142.656 169.317 142.838 168.843 143.12C168.383 143.411 167.973 143.83 167.612 144.378C167.418 144.672 167.255 145.006 167.124 145.379C166.997 145.775 166.922 146.165 166.897 146.552C166.873 146.938 166.903 147.313 166.989 147.676C167.08 148.062 167.246 148.392 167.487 148.665L167.368 148.846L165.865 147.855C165.918 147.775 165.953 147.664 165.97 147.522C165.978 147.393 165.986 147.235 165.994 147.049C166.01 146.676 166.074 146.201 166.187 145.623C166.313 145.055 166.622 144.396 167.115 143.648C167.512 143.047 167.977 142.53 168.512 142.097C169.038 141.677 169.618 141.379 170.251 141.203C170.885 141.026 171.566 140.996 172.294 141.112C173.014 141.242 173.761 141.562 174.536 142.073C175.03 142.399 175.478 142.809 175.88 143.304C176.273 143.812 176.56 144.366 176.741 144.964C176.926 145.584 176.969 146.245 176.871 146.947C176.772 147.648 176.476 148.373 175.983 149.121C175.543 149.789 175.046 150.295 174.493 150.64C173.931 150.998 173.344 151.205 172.732 151.261C172.111 151.331 171.474 151.266 170.821 151.065C170.168 150.864 169.514 150.548 168.859 150.116L173.443 143.163ZM175.375 148.605C175.683 148.138 175.858 147.669 175.9 147.198C175.933 146.741 175.882 146.295 175.747 145.861C175.611 145.427 175.401 145.019 175.115 144.639C174.829 144.259 174.512 143.926 174.165 143.639L170.399 149.35C170.796 149.592 171.225 149.769 171.687 149.882C172.14 150.008 172.589 150.055 173.032 150.022C173.476 149.988 173.899 149.855 174.302 149.622C174.718 149.398 175.075 149.059 175.375 148.605Z" fill="#363432"/>
<path d="M145.705 161.445C145.502 160.766 145.476 160.227 145.626 159.829C145.763 159.439 145.982 159.139 146.283 158.927C146.48 158.789 146.68 158.698 146.883 158.653C147.086 158.608 147.274 158.584 147.447 158.579C147.62 158.575 147.762 158.583 147.874 158.602C147.972 158.631 148.021 158.645 148.021 158.645L148.49 160.691C148.291 160.519 148.101 160.388 147.921 160.299C147.764 160.214 147.589 160.161 147.398 160.139C147.207 160.117 147.026 160.165 146.856 160.285C146.541 160.506 146.454 160.909 146.592 161.496L147.346 164.574L155.509 169.517C155.77 169.666 156.019 169.784 156.257 169.871C156.481 169.968 156.724 169.924 156.986 169.74L157.124 169.937L154.59 171.716L154.452 171.52C154.505 171.483 154.538 171.391 154.552 171.244C154.566 171.098 154.523 170.952 154.422 170.808C154.348 170.703 154.248 170.617 154.122 170.549L147.803 166.687L149.472 173.991C149.497 174.11 149.537 174.209 149.592 174.288C149.684 174.419 149.804 174.491 149.95 174.505C150.084 174.529 150.197 174.508 150.288 174.444L150.426 174.64L148.521 175.978L148.383 175.782C148.593 175.635 148.712 175.414 148.74 175.121C148.765 174.849 148.745 174.57 148.68 174.283L145.705 161.445Z" fill="#363432"/>
<path d="M130.054 175.976C129.898 175.851 129.708 175.731 129.486 175.617C129.264 175.502 129.034 175.408 128.795 175.335C128.541 175.268 128.296 175.223 128.061 175.201C127.832 175.193 127.629 175.227 127.452 175.301L127.359 175.08L128.2 174.726C128.878 174.44 129.461 174.36 129.947 174.485C130.434 174.61 130.861 174.821 131.229 175.117L133.098 176.648C133.39 176.889 133.775 177.04 134.251 177.1C134.734 177.174 135.189 177.121 135.617 176.941L134.294 173.8C134.245 173.683 134.184 173.56 134.114 173.434C134.028 173.313 133.931 173.207 133.823 173.114C133.714 173.02 133.597 172.948 133.471 172.897C133.352 172.861 133.233 172.867 133.115 172.917L133.022 172.696L135.875 171.494L135.968 171.715C135.865 171.759 135.785 171.836 135.727 171.947C135.661 172.079 135.624 172.216 135.614 172.359C135.605 172.502 135.614 172.646 135.64 172.791C135.666 172.936 135.705 173.068 135.754 173.186L138.492 179.689C138.536 179.792 138.6 179.904 138.686 180.024C138.777 180.159 138.877 180.273 138.986 180.366C139.08 180.466 139.187 180.534 139.306 180.57C139.432 180.621 139.561 180.619 139.694 180.563L139.787 180.784L136.956 181.976L136.862 181.755C136.966 181.712 137.043 181.627 137.094 181.502C137.137 181.397 137.163 181.273 137.172 181.13C137.181 180.987 137.17 180.836 137.137 180.676C137.111 180.531 137.076 180.407 137.032 180.304L136.073 178.025C135.675 178.853 135.275 179.655 134.873 180.432C134.477 181.223 134.08 182.033 133.682 182.86C133.688 182.875 133.687 182.893 133.678 182.914C133.67 182.935 133.669 182.952 133.675 182.967C133.706 183.041 133.758 183.062 133.832 183.031L133.925 183.252L132.001 184.063L131.908 183.841C131.981 183.81 132.061 183.751 132.145 183.663C132.23 183.576 132.311 183.481 132.39 183.378C132.483 183.269 132.57 183.146 132.65 183.008C133.078 182.168 133.5 181.314 133.915 180.444C134.336 179.59 134.761 178.743 135.188 177.903C134.554 178.17 133.988 178.269 133.491 178.201C132.979 178.139 132.474 177.909 131.976 177.511L130.054 175.976Z" fill="#363432"/>
<path d="M117.38 188.189C116.529 188.342 115.77 188.324 115.102 188.136C114.421 187.966 113.833 187.682 113.339 187.283C112.829 186.887 112.416 186.401 112.1 185.823C111.785 185.246 111.569 184.635 111.453 183.989C111.339 183.359 111.329 182.719 111.423 182.068C111.502 181.42 111.702 180.815 112.023 180.253C112.329 179.694 112.754 179.211 113.298 178.804C113.843 178.397 114.524 178.119 115.343 177.972C115.831 177.884 116.358 177.919 116.923 178.077C117.475 178.254 117.991 178.503 118.472 178.822L117.595 173.957C117.572 173.831 117.532 173.7 117.475 173.564C117.415 173.412 117.342 173.279 117.257 173.164C117.155 173.052 117.057 172.956 116.961 172.876C116.849 172.799 116.731 172.771 116.605 172.794L116.562 172.558L119.633 172.004L119.675 172.241C119.565 172.26 119.471 172.326 119.394 172.438C119.316 172.549 119.257 172.674 119.217 172.811C119.161 172.951 119.132 173.103 119.128 173.266C119.122 173.413 119.131 173.55 119.154 173.676L121.35 185.864C121.376 186.005 121.408 186.138 121.446 186.261C121.472 186.402 121.516 186.516 121.581 186.602C121.648 186.704 121.742 186.776 121.864 186.82C121.972 186.881 122.123 186.903 122.314 186.885L122.357 187.121L120.042 187.538L119.855 186.499C119.608 186.933 119.283 187.293 118.879 187.577C118.462 187.88 117.962 188.084 117.38 188.189ZM115.464 178.779C114.916 178.894 114.458 179.107 114.092 179.417C113.725 179.727 113.441 180.095 113.242 180.521C113.042 180.947 112.921 181.4 112.877 181.879C112.836 182.374 112.861 182.874 112.952 183.378C113.054 183.944 113.234 184.489 113.49 185.012C113.747 185.535 114.064 185.982 114.439 186.353C114.818 186.74 115.252 187.028 115.741 187.216C116.217 187.423 116.731 187.476 117.282 187.377C117.613 187.317 117.932 187.195 118.24 187.009C118.532 186.827 118.783 186.594 118.992 186.313C119.186 186.034 119.332 185.715 119.43 185.356C119.515 185.016 119.522 184.649 119.451 184.255L118.893 181.161C118.816 180.736 118.659 180.358 118.42 180.027C118.185 179.711 117.909 179.444 117.593 179.225C117.264 179.024 116.914 178.884 116.542 178.804C116.17 178.725 115.811 178.717 115.464 178.779Z" fill="#363432"/>
<path d="M95.869 179.328L95.8177 180.551L95.9427 180.436C96.3591 180.053 96.8357 179.761 97.3727 179.559C97.8936 179.357 98.5217 179.271 99.2571 179.302C99.8166 179.326 100.293 179.41 100.688 179.554C101.082 179.699 101.402 179.889 101.649 180.123C101.895 180.374 102.075 180.653 102.19 180.962C102.289 181.271 102.332 181.593 102.318 181.929C102.295 182.472 102.131 182.946 101.826 183.349C101.505 183.752 101.058 184.102 100.485 184.398C99.9118 184.694 99.2203 184.954 98.4103 185.176C97.5836 185.413 96.6454 185.638 95.5956 185.851C95.6014 186.475 95.7082 186.984 95.9159 187.377C96.1236 187.77 96.375 188.077 96.67 188.298C96.9644 188.534 97.2781 188.692 97.6111 188.77C97.9434 188.864 98.2295 188.916 98.4693 188.926C98.8849 188.943 99.2553 188.894 99.5804 188.78C99.9048 188.682 100.191 188.533 100.44 188.336C100.688 188.154 100.897 187.938 101.067 187.689C101.222 187.44 101.345 187.189 101.435 186.936L101.651 186.945L101.573 188.815C101.429 188.809 101.259 188.85 101.063 188.938C100.867 189.042 100.638 189.153 100.377 189.27C100.099 189.386 99.775 189.485 99.4033 189.565C99.015 189.661 98.557 189.698 98.0295 189.676C97.1503 189.639 96.4436 189.497 95.9094 189.251C95.3753 189.004 94.9721 188.691 94.6997 188.311C94.4114 187.931 94.2294 187.499 94.1535 187.015C94.0771 186.548 94.0492 186.066 94.07 185.57L94.269 180.823C94.2824 180.503 94.2152 180.196 94.0674 179.901C93.919 179.623 93.7089 179.478 93.4371 179.467L93.4471 179.227L95.869 179.328ZM95.7735 181.606L95.6298 185.035L95.8716 184.997C96.2593 184.918 96.7362 184.809 97.3024 184.673C97.8526 184.536 98.3809 184.35 98.8872 184.115C99.3935 183.88 99.8298 183.594 100.196 183.257C100.563 182.92 100.756 182.52 100.775 182.056C100.797 181.545 100.606 181.112 100.205 180.759C99.8033 180.406 99.2668 180.215 98.5954 180.187C98.0679 180.165 97.5996 180.258 97.1906 180.465C96.7809 180.688 96.4005 180.976 96.0493 181.33L95.7735 181.606Z" fill="#363432"/>
<path d="M83.3661 178.523L79.2011 177.29L77.006 184.699C76.9741 184.807 76.9509 184.942 76.9361 185.104C76.9213 185.267 76.9264 185.418 76.9515 185.559C76.9611 185.696 76.9983 185.823 77.0631 185.943C77.1279 186.062 77.214 186.138 77.3214 186.169L77.2532 186.4L74.3998 185.554L74.4679 185.324C74.5907 185.36 74.7117 185.346 74.831 185.281C74.9304 185.227 75.029 185.148 75.1267 185.044C75.2091 184.935 75.2861 184.816 75.3577 184.687C75.4247 184.573 75.4719 184.47 75.4991 184.378L77.7283 176.853L73.5403 175.613L71.3451 183.022C71.3133 183.13 71.29 183.265 71.2753 183.427C71.2452 183.585 71.2426 183.734 71.2676 183.875C71.2773 184.012 71.3145 184.14 71.3793 184.259C71.4441 184.378 71.5455 184.458 71.6836 184.499L71.6154 184.729L68.7159 183.87L68.7841 183.64C68.9068 183.677 69.0279 183.662 69.1472 183.598C69.2511 183.528 69.352 183.441 69.4497 183.337C69.5474 183.232 69.6344 183.108 69.7105 182.964C69.7713 182.815 69.8176 182.687 69.8494 182.579L71.8468 175.837C71.8786 175.729 71.8996 175.602 71.9099 175.455C71.9201 175.308 71.9204 175.166 71.9107 175.03C71.8857 174.889 71.8485 174.761 71.799 174.646C71.7297 174.542 71.6414 174.474 71.534 174.442L71.6021 174.212L85.7542 178.405L85.686 178.635C85.5786 178.603 85.4752 178.614 85.3758 178.668C85.2718 178.738 85.171 178.825 85.0733 178.929C84.9755 179.034 84.8909 179.15 84.8193 179.279C84.7477 179.408 84.696 179.527 84.6642 179.634L82.6668 186.376C82.635 186.484 82.6117 186.619 82.5969 186.781C82.5668 186.939 82.5643 187.088 82.5893 187.229C82.5989 187.366 82.6361 187.494 82.7009 187.613C82.7504 187.728 82.8364 187.803 82.9592 187.84L82.891 188.07L80.0376 187.224L80.1057 186.994C80.2285 187.031 80.3495 187.016 80.4688 186.952C80.5881 186.887 80.6966 186.802 80.7944 186.698C80.8767 186.589 80.956 186.462 81.0321 186.318C81.0929 186.169 81.1392 186.041 81.171 185.933L83.3661 178.523Z" fill="#363432"/>
<path d="M60.762 174.271C60.9953 173.758 61.1546 173.228 61.2397 172.682C61.3167 172.15 61.3099 171.632 61.2194 171.13C61.1153 170.62 60.9123 170.134 60.6105 169.673C60.3006 169.226 59.8643 168.833 59.3019 168.496C59.0001 168.315 58.6598 168.166 58.2812 168.051C57.8806 167.941 57.4869 167.882 57.1 167.874C56.7131 167.866 56.3399 167.912 55.9804 168.014C55.5989 168.121 55.2765 168.3 55.013 168.553L54.8278 168.441L55.7542 166.898C55.8365 166.948 55.949 166.978 56.0917 166.989C56.2207 166.991 56.3784 166.993 56.565 166.993C56.9382 166.993 57.4157 167.037 57.9974 167.125C58.5708 167.227 59.2417 167.508 60.0099 167.969C60.6272 168.34 61.1636 168.783 61.619 169.299C62.0607 169.807 62.383 170.373 62.586 170.999C62.7889 171.625 62.8478 172.304 62.7626 173.036C62.6637 173.761 62.3754 174.521 61.8978 175.316C61.5931 175.824 61.202 176.289 60.7245 176.711C60.2333 177.126 59.6926 177.436 59.1026 177.641C58.4907 177.853 57.8321 177.924 57.1269 177.855C56.4217 177.786 55.685 177.521 54.9168 177.06C54.2309 176.649 53.7041 176.174 53.3365 175.636C52.9552 175.09 52.7235 174.512 52.6413 173.903C52.5453 173.285 52.5839 172.646 52.7569 171.985C52.9298 171.324 53.2181 170.657 53.6216 169.985L60.762 174.271ZM55.4067 176.431C55.8869 176.719 56.3629 176.874 56.8349 176.896C57.2931 176.91 57.7363 176.84 58.1644 176.686C58.5925 176.533 58.9904 176.305 59.3581 176.003C59.7259 175.702 60.0456 175.371 60.3173 175.012L54.4527 171.491C54.2276 171.897 54.0684 172.334 53.975 172.8C53.8679 173.258 53.8404 173.708 53.8925 174.15C53.9445 174.592 54.0954 175.009 54.345 175.401C54.5864 175.808 54.9403 176.151 55.4067 176.431Z" fill="#363432"/>
<path d="M46.998 160.633C47.0869 160.54 47.1753 160.426 47.2634 160.288C47.3403 160.162 47.4002 160.031 47.4429 159.895C47.4857 159.758 47.5117 159.628 47.5207 159.503C47.5183 159.367 47.4767 159.26 47.3961 159.183L47.5627 159.01L49.7394 161.109L49.5728 161.282C49.4921 161.204 49.3953 161.166 49.2822 161.168C49.1464 161.171 49.0111 161.196 48.8762 161.244C48.7301 161.303 48.5956 161.373 48.4726 161.455C48.3385 161.548 48.227 161.64 48.1382 161.732L43.2567 166.794C43.1789 166.874 43.1016 166.978 43.0247 167.104C42.9477 167.229 42.8879 167.361 42.8451 167.497C42.8023 167.634 42.7877 167.764 42.8013 167.888C42.7922 168.013 42.828 168.114 42.9086 168.192L42.742 168.365L40.5653 166.265L40.7319 166.093C40.8241 166.182 40.938 166.225 41.0737 166.222C41.1869 166.22 41.3109 166.195 41.4458 166.148C41.5692 166.089 41.6924 166.019 41.8154 165.937C41.9384 165.856 42.0388 165.775 42.1165 165.694L44.1324 163.604L40.1937 159.805L38.1778 161.896C38.1 161.976 38.0227 162.079 37.9458 162.205C37.8688 162.331 37.809 162.462 37.7662 162.599C37.7119 162.724 37.6915 162.849 37.7051 162.974C37.696 163.098 37.7376 163.205 37.8297 163.294L37.6631 163.466L35.4864 161.367L35.653 161.195C35.7452 161.283 35.8591 161.327 35.9948 161.324C36.108 161.322 36.232 161.297 36.3669 161.249C36.5018 161.202 36.6308 161.137 36.7538 161.056C36.8653 160.963 36.9599 160.877 37.0376 160.796L41.9191 155.734C42.008 155.642 42.0964 155.528 42.1845 155.39C42.2614 155.264 42.3213 155.133 42.3641 154.997C42.4068 154.86 42.4328 154.729 42.4418 154.605C42.4394 154.469 42.3978 154.362 42.3172 154.284L42.4838 154.112L44.6605 156.211L44.4939 156.384C44.4133 156.306 44.3164 156.268 44.2033 156.27C44.0675 156.273 43.9322 156.298 43.7973 156.345C43.6512 156.405 43.5167 156.475 43.3937 156.556C43.2596 156.649 43.1482 156.742 43.0593 156.834L40.7435 159.235L44.6822 163.034L46.998 160.633Z" fill="#363432"/>
<path d="M30.5067 140.42C30.6144 140.351 30.727 140.26 30.8444 140.147C30.9397 140.029 31.0239 139.908 31.0971 139.785C31.1703 139.662 31.2214 139.534 31.2504 139.402C31.2707 139.255 31.2549 139.142 31.2031 139.061L31.4051 138.932L33.0638 141.517L32.8618 141.647C32.8013 141.553 32.7115 141.487 32.5923 141.449C32.4597 141.42 32.3222 141.413 32.1799 141.429C32.0241 141.452 31.877 141.49 31.7385 141.541C31.5866 141.6 31.4567 141.664 31.349 141.733L26.5007 144.843L34.2916 146.632L34.433 146.541C34.5408 146.472 34.6534 146.381 34.7707 146.268C34.8747 146.163 34.9632 146.049 35.0364 145.926C35.1096 145.803 35.165 145.682 35.2026 145.563C35.2316 145.43 35.2158 145.317 35.1554 145.223L35.3574 145.093L37.0031 147.659L36.8011 147.788C36.7406 147.694 36.6508 147.628 36.5316 147.59C36.399 147.561 36.2615 147.554 36.1192 147.57C35.9634 147.594 35.8163 147.631 35.6778 147.682C35.5259 147.741 35.396 147.805 35.2883 147.875L29.3694 151.671C29.2751 151.732 29.176 151.814 29.0721 151.919C28.9681 152.024 28.8796 152.138 28.8064 152.261C28.7332 152.384 28.6889 152.507 28.6734 152.631C28.6444 152.764 28.6601 152.877 28.7206 152.971L28.5186 153.101L26.8729 150.535L27.0749 150.406C27.144 150.514 27.2449 150.582 27.3775 150.611C27.4881 150.635 27.6145 150.64 27.7568 150.624C27.8904 150.596 28.0265 150.556 28.165 150.505C28.3035 150.454 28.4199 150.399 28.5141 150.338L33.3422 147.241L25.5513 145.452L25.4301 145.53C25.3358 145.591 25.2367 145.673 25.1328 145.778C25.0288 145.883 24.9403 145.996 24.8671 146.119C24.7939 146.242 24.7496 146.366 24.7341 146.49C24.7051 146.623 24.7208 146.736 24.7813 146.83L24.5793 146.96L22.9207 144.374L23.1227 144.245C23.1918 144.352 23.297 144.427 23.4382 144.47C23.5574 144.507 23.6881 144.519 23.8304 144.503C23.9641 144.475 24.1002 144.435 24.2386 144.384C24.3771 144.333 24.4935 144.278 24.5878 144.217L30.5067 140.42Z" fill="#363432"/>
<path d="M23.6812 124.94C23.8015 124.897 23.9312 124.832 24.0706 124.747C24.1948 124.668 24.3136 124.573 24.4269 124.464C24.5197 124.345 24.5975 124.231 24.6602 124.123C24.7024 124.005 24.7016 123.887 24.6577 123.766L24.8831 123.684L25.9534 126.615L25.7279 126.697C25.6895 126.592 25.6088 126.511 25.4857 126.453C25.3626 126.396 25.2299 126.359 25.0877 126.343C24.94 126.312 24.7931 126.306 24.6468 126.325C24.4856 126.35 24.3448 126.384 24.2246 126.428L21.0685 127.581C21.1589 127.735 21.3177 127.89 21.5448 128.046C21.7569 128.207 22.0168 128.359 22.3246 128.502C22.6173 128.651 22.9299 128.783 23.2622 128.901C23.5945 129.018 23.9214 129.12 24.2428 129.207C24.508 129.28 24.7275 129.345 24.9012 129.401C25.0749 129.456 25.2356 129.5 25.3833 129.531C25.6335 129.61 25.8763 129.692 26.1115 129.776C26.3317 129.866 26.5451 129.984 26.7517 130.13C26.9529 130.261 27.1376 130.441 27.3061 130.669C27.4745 130.897 27.6219 131.184 27.7481 131.529L28.0527 132.363L27.8273 132.446C27.7614 132.265 27.643 132.104 27.4719 131.962C27.2953 131.805 27.099 131.664 26.8828 131.539C26.6517 131.419 26.4184 131.316 26.1832 131.232C25.9275 131.138 25.695 131.061 25.4857 131.001L24.2611 130.656C23.8222 130.527 23.388 130.388 22.9585 130.238C22.5141 130.094 22.131 129.884 21.8094 129.61C21.992 130.156 22.0924 130.665 22.1109 131.135C22.1293 131.605 22.0779 132.024 21.9568 132.392C21.8356 132.76 21.6597 133.071 21.429 133.326C21.1778 133.571 20.8869 133.754 20.5563 133.875C20.2407 133.99 19.9154 134.032 19.5804 134.001C19.24 133.955 18.9069 133.813 18.5813 133.574C18.2406 133.34 17.9223 133.005 17.6264 132.568C17.31 132.122 17.0256 131.553 16.7731 130.861L15.4147 127.142L15.6402 127.059C15.6841 127.18 15.7676 127.268 15.8907 127.326C15.9933 127.373 16.1184 127.413 16.2661 127.444C16.4083 127.46 16.5525 127.459 16.6987 127.439C16.845 127.42 16.9707 127.391 17.0759 127.353L23.6812 124.94ZM19.8859 132.459C20.1113 132.376 20.3121 132.226 20.4881 132.009C20.6587 131.776 20.7902 131.507 20.8827 131.2C20.9698 130.879 21.0158 130.538 21.0208 130.179C21.0107 129.825 20.9398 129.468 20.8081 129.107L20.3471 127.844L16.9429 129.088L17.4781 130.553C17.8074 131.455 18.1834 132.041 18.6062 132.313C19.0235 132.569 19.45 132.618 19.8859 132.459Z" fill="#363432"/>
<g clip-path="url(#clip0_119_1655)">
<path d="M13.5971 109.872L14.7187 121.241L15.888 109.877L24.6836 117.121L17.4772 108.295L28.8456 107.173L17.482 106.004L24.7254 97.2081L15.8994 104.414L14.7779 93.0461L13.6086 104.41L4.81297 97.1662L12.0193 105.992L0.650951 107.114L12.0145 108.283L4.77112 117.079L13.5971 109.872Z" fill="#B38E64"/>
</g>
<defs>
<clipPath id="clip0_119_1655">
<rect width="28.1947" height="28.1947" fill="white" transform="translate(28.8752 93.0757) rotate(90.1204)"/>
</clipPath>
</defs>
</svg>
