<svg width="30" height="30" viewBox="0 0 30 30" fill="none" xmlns="http://www.w3.org/2000/svg">
<g clip-path="url(#clip0_20_173)">
<path d="M29.9707 13.8574C29.9707 13.7793 29.9609 13.7012 29.9414 13.623C29.9219 13.5449 29.8975 13.4668 29.8682 13.3887C29.8389 13.3105 29.8047 13.2373 29.7656 13.1689C29.7266 13.1006 29.6777 13.0371 29.6191 12.9785L29.5898 12.9492C29.5508 12.8906 29.502 12.832 29.4434 12.7734L29.2676 12.5977L24.375 7.67578V4.6582C24.375 4.4043 24.2822 4.18457 24.0967 3.99902C23.9111 3.81348 23.6914 3.7207 23.4375 3.7207H20.4785L17.0508 0.791016C16.8359 0.576172 16.5967 0.405273 16.333 0.27832C16.0693 0.151367 15.791 0.0683594 15.498 0.0292969C15.2051 -0.00976563 14.9121 -0.00976563 14.6191 0.0292969C14.3262 0.0683594 14.0479 0.151367 13.7842 0.27832C13.5205 0.405273 13.2812 0.576172 13.0664 0.791016L9.66797 3.7207H6.5625C6.30859 3.7207 6.08887 3.81348 5.90332 3.99902C5.71777 4.18457 5.625 4.4043 5.625 4.6582V7.73438L0.849609 12.5098C0.283203 12.8809 0 13.4082 0 14.0918V28.125C0 28.6523 0.185547 29.0967 0.556641 29.458C0.927734 29.8193 1.36719 30 1.875 30H28.125C28.457 30 28.7695 29.917 29.0625 29.751C29.3555 29.585 29.585 29.3555 29.751 29.0625C29.917 28.7695 30 28.457 30 28.125V14.0039L29.9707 13.8574ZM7.88086 21.2695L1.875 26.8359V15.9668L7.88086 21.2695ZM9.69727 22.1484C9.81445 22.0898 9.92188 22.002 10.0195 21.8848C10.0391 21.8652 10.0586 21.8408 10.0781 21.8115C10.0977 21.7822 10.1172 21.748 10.1367 21.709L14.1797 17.959C14.3945 17.7832 14.6387 17.6953 14.9121 17.6953C15.1855 17.6953 15.4199 17.7734 15.6152 17.9297L26.8652 28.125H3.22266L9.69727 22.1484ZM22.207 21.3867L28.125 16.1426V26.7188L22.207 21.3867ZM26.3086 12.2168H26.2793L27.8906 13.8281L24.375 16.9629V10.2832L26.3086 12.2168ZM14.3848 2.10938C14.5801 1.93359 14.8047 1.8457 15.0586 1.8457C15.1758 1.8457 15.293 1.87012 15.4102 1.91895C15.5273 1.96777 15.6348 2.03125 15.7324 2.10938L17.6074 3.7207H12.5098L14.3848 2.10938ZM22.5 5.5957V18.6328L20.8301 20.127L16.8164 16.4941C16.6992 16.3965 16.5723 16.3086 16.4355 16.2305C16.2988 16.1523 16.1621 16.0889 16.0254 16.04C15.8887 15.9912 15.7471 15.9473 15.6006 15.9082C15.4541 15.8691 15.3027 15.8447 15.1465 15.835C14.9902 15.8252 14.8389 15.8252 14.6924 15.835C14.5459 15.8447 14.3945 15.8691 14.2383 15.9082C14.082 15.9473 13.9355 15.9961 13.7988 16.0547C13.6621 16.1133 13.5205 16.1816 13.374 16.2598C13.2275 16.3379 13.0957 16.4258 12.9785 16.5234L9.25781 19.9805L7.5 18.4277V5.5957H22.5ZM3.04688 12.9785L5.625 10.4004V16.7578L2.19727 13.7402L2.98828 12.9785H3.04688Z" fill="#B38E64"/>
</g>
<defs>
<clipPath id="clip0_20_173">
<rect width="30" height="30" fill="white"/>
</clipPath>
</defs>
</svg>
