<svg width="39" height="39" viewBox="0 0 39 39" fill="none" xmlns="http://www.w3.org/2000/svg">
<g clip-path="url(#clip0_108_5787)">
<path d="M9.64583 1.6632C11.0972 3.64931 12.8032 6.19561 14.7639 9.30209C15.2477 10.1169 15.1713 11.1227 14.5347 12.3195C14.331 12.7269 13.7199 13.86 12.7014 15.7188C12.9051 16.0243 13.1406 16.3426 13.408 16.6736C13.6753 17.0046 13.9618 17.3548 14.2674 17.724C14.5729 18.0932 14.9039 18.4688 15.2604 18.8507C15.6169 19.2326 15.9925 19.6337 16.3872 20.0538C16.7818 20.474 17.1956 20.9005 17.6285 21.3333C19.8692 23.5741 21.728 25.2292 23.2049 26.2986C24.86 25.331 25.9931 24.6945 26.6042 24.3889C27.2407 24.0324 27.8518 23.8542 28.4375 23.8542C28.8958 23.8542 29.2905 23.956 29.6215 24.1597C31.8877 25.5347 34.4595 27.2407 37.3368 29.2778C37.8461 29.6852 38.1516 30.2199 38.2535 30.882C38.3299 31.5695 38.1134 32.3079 37.6042 33.0972C37.4005 33.4028 37.0058 33.912 36.4201 34.625C35.8854 35.287 35.077 36.1273 33.9948 37.1458C32.9126 38.1644 32.0278 38.6736 31.3403 38.6736H31.2639C28.6412 38.5718 25.7257 37.5405 22.5174 35.5799C19.309 33.6192 15.7951 30.7419 11.9757 26.9479C4.36227 19.309 0.453704 12.8796 0.25 7.65973C0.25 6.97223 0.759259 6.06829 1.77778 4.94792C2.77083 3.87848 3.59838 3.0764 4.26042 2.54167C4.92245 2.03241 5.45718 1.63774 5.86458 1.35765C6.3993 0.975701 7.02315 0.784729 7.73611 0.784729C8.55093 0.784729 9.1875 1.07755 9.64583 1.6632ZM7.20139 3.22917C6.20833 3.94214 5.24074 4.76968 4.29861 5.71181C3.38194 6.62848 2.84722 7.30325 2.69444 7.73612C2.89815 12.3195 6.55845 18.1632 13.6753 25.2674C20.7922 32.3715 26.6551 36.0509 31.2639 36.3056C31.6458 36.1528 32.2951 35.6053 33.2118 34.6632C34.1285 33.7211 34.956 32.7407 35.6944 31.7222C35.7708 31.6204 35.8218 31.5249 35.8472 31.4358C35.8727 31.3466 35.8727 31.2639 35.8472 31.1875C32.919 29.1505 30.4491 27.4954 28.4375 26.2222C28.2338 26.2222 27.9792 26.2986 27.6736 26.4514C27.5718 26.5023 27.1643 26.7315 26.4514 27.1389C25.7384 27.5463 25.0382 27.9282 24.3507 28.2847L23.0903 29.0486L21.8299 28.2083C20.2257 27.1134 18.2523 25.3692 15.9097 22.9757C13.6181 20.6586 11.8993 18.6852 10.7535 17.0556L9.8368 15.8715L10.6007 14.5347C11.5428 12.8287 12.1539 11.7211 12.434 11.2118C12.5868 10.9063 12.6632 10.6516 12.6632 10.4479C11.7975 9.07292 10.9572 7.76795 10.1424 6.53299C9.32755 5.29804 8.55093 4.14584 7.8125 3.0764H7.73611C7.53241 3.0764 7.35417 3.12732 7.20139 3.22917Z" fill="#78512D"/>
</g>
<defs>
<clipPath id="clip0_108_5787">
<rect width="38.5" height="38.5" fill="white" transform="translate(0.25 0.25)"/>
</clipPath>
</defs>
</svg>
