<svg width="32" height="31" viewBox="0 0 32 31" fill="none" xmlns="http://www.w3.org/2000/svg">
<path d="M30.2929 14.2929C30.6834 13.9024 31.3166 13.9024 31.7071 14.2929C32.0976 14.6834 32.0976 15.3166 31.7071 15.7071L30.2929 14.2929ZM16 30L16.7071 30.7071C16.3166 31.0976 15.6834 31.0976 15.2929 30.7071L16 30ZM0.292894 15.7071C-0.0976315 15.3166 -0.0976302 14.6834 0.292894 14.2929C0.683418 13.9024 1.31658 13.9024 1.70711 14.2929L0.292894 15.7071ZM31.7071 15.7071L16.7071 30.7071L15.2929 29.2929L30.2929 14.2929L31.7071 15.7071ZM15.2929 30.7071L0.292894 15.7071L1.70711 14.2929L16.7071 29.2929L15.2929 30.7071Z" fill="#E0C9B2"/>
<path opacity="0.5" d="M24.3532 11.9501C24.7437 11.5595 25.3769 11.5595 25.7674 11.9501C26.1579 12.3406 26.1579 12.9737 25.7674 13.3643L24.3532 11.9501ZM16.0603 21.6572L16.7674 22.3643C16.3769 22.7548 15.7437 22.7548 15.3532 22.3643L16.0603 21.6572ZM6.3532 13.3643C5.96267 12.9737 5.96267 12.3406 6.3532 11.9501C6.74372 11.5595 7.37688 11.5595 7.76741 11.9501L6.3532 13.3643ZM25.7674 13.3643L16.7674 22.3643L15.3532 20.9501L24.3532 11.9501L25.7674 13.3643ZM15.3532 22.3643L6.3532 13.3643L7.76741 11.9501L16.7674 20.9501L15.3532 22.3643Z" fill="#E0C9B2"/>
</svg>
