<svg width="30" height="30" viewBox="0 0 30 30" fill="none" xmlns="http://www.w3.org/2000/svg">
<path d="M21.0625 0H9.8125C9.30469 0 8.83594 0.126953 8.40625 0.380859C7.97656 0.634766 7.63477 0.976562 7.38086 1.40625C7.12695 1.83594 7 2.30469 7 2.8125V27.1875C7 27.9688 7.27344 28.6328 7.82031 29.1797C8.36719 29.7266 9.03125 30 9.8125 30H21.0625C21.8438 30 22.5078 29.7266 23.0547 29.1797C23.6016 28.6328 23.875 27.9688 23.875 27.1875V2.8125C23.875 2.30469 23.748 1.83594 23.4941 1.40625C23.2402 0.976562 22.8984 0.634766 22.4688 0.380859C22.0391 0.126953 21.5703 0 21.0625 0ZM22 27.1875C22 27.4414 21.9072 27.6611 21.7217 27.8467C21.5361 28.0322 21.3164 28.125 21.0625 28.125H9.8125C9.55859 28.125 9.33887 28.0322 9.15332 27.8467C8.96777 27.6611 8.875 27.4414 8.875 27.1875V2.8125C8.875 2.55859 8.96777 2.33887 9.15332 2.15332C9.33887 1.96777 9.55859 1.875 9.8125 1.875H21.0625C21.3164 1.875 21.5361 1.96777 21.7217 2.15332C21.9072 2.33887 22 2.55859 22 2.8125V27.1875ZM15.4521 23.4375C14.9346 23.4375 14.4902 23.623 14.1191 23.9941C13.748 24.3652 13.5625 24.8047 13.5625 25.3125C13.5625 25.6445 13.6455 25.957 13.8115 26.25C13.9775 26.543 14.207 26.7725 14.5 26.9385C14.793 27.1045 15.1055 27.1875 15.4375 27.1875C15.7695 27.1875 16.082 27.1045 16.375 26.9385C16.668 26.7725 16.8975 26.543 17.0635 26.25C17.2295 25.957 17.3125 25.6445 17.3125 25.3125C17.3125 24.8047 17.1318 24.3652 16.7705 23.9941C16.4092 23.623 15.9697 23.4375 15.4521 23.4375ZM17.3125 2.8125H13.5625C13.3086 2.8125 13.0889 2.90527 12.9033 3.09082C12.7178 3.27637 12.625 3.49609 12.625 3.75C12.625 4.00391 12.7178 4.22363 12.9033 4.40918C13.0889 4.59473 13.3086 4.6875 13.5625 4.6875H17.3125C17.5664 4.6875 17.7861 4.59473 17.9717 4.40918C18.1572 4.22363 18.25 4.00391 18.25 3.75C18.25 3.49609 18.1572 3.27637 17.9717 3.09082C17.7861 2.90527 17.5664 2.8125 17.3125 2.8125Z" fill="#B38E64"/>
</svg>
