<svg width="30" height="30" viewBox="0 0 30 30" fill="none" xmlns="http://www.w3.org/2000/svg">
<path d="M29.8065 27.6023L27.3566 12.8655C27.2594 11.9103 26.8317 11.0916 26.0734 10.4094C25.3151 9.7271 24.4596 9.38597 23.5069 9.38597H21.4362V6.90058C21.4362 5.96491 21.2758 5.0731 20.955 4.22515C20.6341 3.37719 20.187 2.64133 19.6134 2.01754C19.0398 1.39376 18.3496 0.901559 17.5427 0.540936C16.7358 0.180312 15.8657 0 14.9324 0C13.688 0 12.5652 0.311891 11.5639 0.935673C10.5625 1.55945 9.77995 2.39766 9.2161 3.45029C8.65225 4.50292 8.37032 5.65302 8.37032 6.90058V9.38597H6.12462C5.81353 9.38597 5.50244 9.42982 5.19135 9.51754C4.88026 9.60526 4.58861 9.72222 4.3164 9.86842C4.0442 10.0146 3.79143 10.1949 3.55811 10.4094C3.3248 10.6238 3.12064 10.8577 2.94565 11.1111C2.77066 11.3645 2.62484 11.6374 2.50818 11.9298C2.39152 12.2222 2.31375 12.5146 2.27486 12.807L0.0291649 27.5731C-0.0680514 28.3528 0.077773 28.9571 0.466638 29.386C0.83606 29.7953 1.36103 30 2.04154 30H27.5025C27.9497 30 28.3191 29.9318 28.6107 29.7953C28.9024 29.6589 29.1357 29.4932 29.3107 29.2982C29.6996 28.8499 29.8648 28.2846 29.8065 27.6023ZM10.2369 6.90058C10.2369 5.49708 10.6792 4.30799 11.5639 3.33333C12.4485 2.35867 13.5714 1.87135 14.9324 1.87135C15.6129 1.87135 16.2448 2.00292 16.8281 2.26608C17.4114 2.52924 17.9024 2.88986 18.301 3.34795C18.6995 3.80604 19.0106 4.34211 19.2342 4.95614C19.4578 5.57018 19.5696 6.21832 19.5696 6.90058V9.38597H10.2369V6.90058ZM27.59 28.0994L2.1582 28.1287C1.92488 28.1287 1.82767 28.0214 1.86655 27.807L4.11225 13.0702C4.15113 12.8363 4.22891 12.6072 4.34557 12.383C4.46223 12.1589 4.61291 11.9639 4.79762 11.7982C4.98233 11.6326 5.19135 11.501 5.42467 11.4035C5.65799 11.306 5.8913 11.2573 6.12462 11.2573H8.37032V13.3918C8.23422 13.4893 8.10783 13.5916 7.99117 13.6988C7.87452 13.806 7.7773 13.9279 7.69953 14.0643C7.62175 14.2008 7.55856 14.3519 7.50995 14.5175C7.46135 14.6832 7.43704 14.8441 7.43704 15C7.43704 15.5263 7.61689 15.9698 7.97659 16.3304C8.33629 16.691 8.77863 16.8713 9.30359 16.8713C9.82856 16.8713 10.2709 16.691 10.6306 16.3304C10.9903 15.9698 11.1701 15.5263 11.1701 15C11.1701 14.2982 10.8591 13.7622 10.2369 13.3918V11.2573H19.5696V13.3918C18.9474 13.7622 18.6364 14.2982 18.6364 15C18.6364 15.5263 18.8162 15.9698 19.1759 16.3304C19.5356 16.691 19.9779 16.8713 20.5029 16.8713C21.0279 16.8713 21.4702 16.691 21.8299 16.3304C22.1896 15.9698 22.3695 15.5263 22.3695 15C22.3695 14.2982 22.0584 13.7622 21.4362 13.3918V11.2573H23.5069C23.6235 11.2573 23.7402 11.2719 23.8569 11.3012C23.9735 11.3304 24.0902 11.3694 24.2068 11.4181C24.3235 11.4669 24.4353 11.5253 24.5422 11.5936C24.6492 11.6618 24.7464 11.7349 24.8339 11.8129C24.9214 11.8908 25.004 11.9786 25.0818 12.076C25.1596 12.1735 25.2276 12.2807 25.2859 12.3977C25.3443 12.5146 25.3929 12.6316 25.4318 12.7485C25.4707 12.8655 25.4998 12.9922 25.5193 13.1287L27.9399 27.8363C27.9594 27.9142 27.9399 27.9776 27.8816 28.0263C27.8233 28.0751 27.7261 28.0994 27.59 28.0994Z" fill="#50361E"/>
</svg>
