<svg width="30" height="30" viewBox="0 0 30 30" fill="none" xmlns="http://www.w3.org/2000/svg">
<path d="M8.30769 3.86207C9.71154 3.86207 11.4423 4.89009 13.5 6.94612L14.8269 8.25539L16.125 6.91703C16.4135 6.60668 16.7163 6.31574 17.0337 6.04418C17.351 5.77263 17.6635 5.52048 17.9712 5.28772C18.2789 5.05496 18.5817 4.8513 18.8798 4.67673C19.1779 4.50216 19.4615 4.35184 19.7308 4.22576C20 4.09968 20.2644 4.00755 20.524 3.94936C20.7837 3.89117 21.0192 3.86207 21.2308 3.86207C22.9423 3.86207 24.4519 4.52156 25.7596 5.84052C27.0865 7.17888 27.75 8.7888 27.75 10.6703C27.75 12.5517 27.0865 14.1713 25.7596 15.5291C25.6635 15.6067 22.2115 19.3599 15.4038 26.7888C15.3077 26.8858 15.2019 26.9488 15.0865 26.9779C14.9712 27.007 14.875 27.0216 14.7981 27.0216C14.5673 27.0216 14.3654 26.944 14.1923 26.7888C7.96154 19.806 4.50962 15.9752 3.83654 15.2963C3.68269 15.1412 3.53365 14.9714 3.38942 14.7872C3.24519 14.6029 3.11058 14.4186 2.98558 14.2344C2.86058 14.0501 2.74519 13.861 2.63942 13.667C2.53365 13.4731 2.4375 13.2742 2.35096 13.0706C2.26442 12.8669 2.19231 12.6584 2.13462 12.445C2.07692 12.2317 2.02404 12.0183 1.97596 11.805C1.92789 11.5916 1.89423 11.3685 1.875 11.1358C1.85577 10.903 1.84615 10.68 1.84615 10.4666C1.84615 8.56574 2.50962 6.94612 3.83654 5.60776C4.45192 5.00647 5.125 4.5652 5.85577 4.28395C6.58654 4.0027 7.40385 3.86207 8.30769 3.86207ZM8.30769 2C7.17308 2 6.125 2.18427 5.16346 2.55281C4.20192 2.92134 3.32692 3.50324 2.53846 4.2985C1.71154 5.13255 1.08173 6.09268 0.649039 7.17888C0.216346 8.26509 0 9.35615 0 10.4521C0 11.548 0.216346 12.639 0.649039 13.7252C1.08173 14.8114 1.71154 15.7716 2.53846 16.6056C2.71154 16.7802 3.1875 17.299 3.96635 18.1622C4.74519 19.0253 5.62019 20 6.59135 21.0862C7.5625 22.1724 8.52404 23.2489 9.47596 24.3157C10.4279 25.3825 11.2308 26.2748 11.8846 26.9925L12.8654 28.069C13.3846 28.6121 14.024 28.8836 14.7837 28.8836C15.5433 28.8836 16.1923 28.6121 16.7308 28.069C23.5385 20.6401 26.9808 16.8966 27.0577 16.8384C28.75 15.1315 29.5962 13.0754 29.5962 10.6703C29.5962 8.26509 28.75 6.21875 27.0577 4.53125C26.2115 3.67781 25.3125 3.04257 24.3606 2.62554C23.4087 2.20852 22.3654 2 21.2308 2C20.2115 2 19.1394 2.33944 18.0144 3.01832C16.8894 3.6972 15.8173 4.56035 14.7981 5.60776C12.375 3.20259 10.2115 2 8.30769 2Z" fill="#50361E"/>
</svg>
