<svg width="30" height="30" viewBox="0 0 30 30" fill="none" xmlns="http://www.w3.org/2000/svg">
<g clip-path="url(#clip0_8_52)">
<path d="M29.3654 27.849L20.3942 18.8534C22.1827 16.7266 23.0769 14.2741 23.0769 11.496C23.0769 9.40753 22.5625 7.48195 21.5337 5.71924C20.5048 3.95653 19.101 2.56264 17.3221 1.53758C15.5433 0.512528 13.6106 0 11.524 0C9.4375 0 7.50962 0.512528 5.74038 1.53758C3.97115 2.56264 2.57212 3.95653 1.54327 5.71924C0.514423 7.48195 0 9.40753 0 11.496C0 13.5844 0.514423 15.51 1.54327 17.2727C2.57212 19.0354 3.97115 20.4293 5.74038 21.4543C7.50962 22.4794 9.44231 22.9919 11.5385 22.9919C14.4038 22.9919 16.9231 22.0531 19.0962 20.1754L28.0385 29.1423C28.2308 29.3339 28.4519 29.4297 28.7019 29.4297C28.9519 29.4297 29.1683 29.3386 29.351 29.1566C29.5337 28.9746 29.625 28.7543 29.625 28.4956C29.625 28.237 29.5385 28.0214 29.3654 27.849ZM11.5385 21.1813C9.76923 21.1813 8.13942 20.7454 6.64904 19.8736C5.15865 19.0019 3.98077 17.8235 3.11538 16.3386C2.25 14.8537 1.81731 13.2395 1.81731 11.496C1.81731 9.75241 2.25 8.13818 3.11538 6.65329C3.98077 5.16839 5.15865 3.99006 6.64904 3.11828C8.13942 2.2465 9.76442 1.81061 11.524 1.81061C13.2837 1.81061 14.9087 2.2465 16.399 3.11828C17.8894 3.99006 19.0673 5.16839 19.9327 6.65329C20.7981 8.13818 21.2308 9.75241 21.2308 11.496C21.2308 12.2432 21.1442 12.9809 20.9712 13.7089C20.7981 14.437 20.5529 15.1172 20.2356 15.7495C19.9183 16.3817 19.5385 16.9805 19.0962 17.5457C18.6538 18.1109 18.1538 18.6139 17.5962 19.0546C17.0385 19.4952 16.4423 19.8736 15.8077 20.1898C15.1731 20.5059 14.4904 20.7502 13.7596 20.9226C13.0288 21.0951 12.2885 21.1813 11.5385 21.1813Z" fill="#50361E"/>
</g>
<defs>
<clipPath id="clip0_8_52">
<rect width="30" height="30" fill="white"/>
</clipPath>
</defs>
</svg>
