<svg width="30" height="30" viewBox="0 0 30 30" fill="none" xmlns="http://www.w3.org/2000/svg">
<path d="M16.8677 1.93548L17.0488 1.96573H19.5534V4.86895H17.0488C16.908 4.86895 16.7722 4.87903 16.6414 4.89919C16.5106 4.91935 16.405 4.95464 16.3246 5.00504C16.2441 5.05544 16.1686 5.11089 16.0982 5.17137C16.0278 5.23185 15.9675 5.29234 15.9172 5.35282C15.8669 5.41331 15.8266 5.47883 15.7965 5.5494C15.7663 5.61996 15.7462 5.68044 15.7361 5.73085L15.7059 5.88206L15.6909 5.9879V10.6452H20.5794L19.8853 13.5484H15.6909V28.0645H12.7939V13.5484H8.9314V10.6452H12.7939V6.13911C12.7939 5.51411 12.8744 4.95464 13.0354 4.46069C13.1963 3.96673 13.4126 3.57863 13.6841 3.29637C13.9557 3.01411 14.2323 2.77218 14.514 2.57056C14.7956 2.36895 15.1075 2.22782 15.4494 2.14718C15.7914 2.06653 16.063 2.01109 16.2642 1.98085C16.4654 1.9506 16.6666 1.93548 16.8677 1.93548ZM16.8677 0C15.6204 0 14.5039 0.302419 13.5182 0.907258C11.7478 1.97581 10.8627 3.71976 10.8627 6.13911V8.70968H8.9314C8.40834 8.70968 7.9557 8.90121 7.57347 9.28427C7.19124 9.66734 7.00012 10.121 7.00012 10.6452V13.5484C7.00012 14.0726 7.19124 14.5262 7.57347 14.9093C7.9557 15.2923 8.40834 15.4839 8.9314 15.4839H10.8627V28.0343C10.8627 28.5786 11.0488 29.0373 11.4209 29.4103C11.7931 29.7833 12.2508 29.9698 12.7939 29.9698H15.6909C16.2139 29.9698 16.6666 29.7833 17.0488 29.4103C17.431 29.0373 17.6221 28.5786 17.6221 28.0343V15.4839H19.8853C20.3279 15.4839 20.7202 15.3528 21.0622 15.0907C21.4042 14.8286 21.6356 14.496 21.7563 14.0927L22.4201 11.1895C22.6012 10.5645 22.5006 9.99496 22.1184 9.48085C21.7361 8.96673 21.2232 8.70968 20.5794 8.70968H17.6221V6.80444H19.5534C20.0765 6.80444 20.5291 6.6129 20.9113 6.22984C21.2936 5.84677 21.4847 5.39315 21.4847 4.86895V1.96573C21.4847 1.42137 21.2986 0.962702 20.9264 0.589718C20.5542 0.216734 20.1066 0.0302419 19.5836 0.0302419H17.1091C17.0287 0.0100806 16.9482 0 16.8677 0Z" fill="#B38E64"/>
</svg>
