<svg width="30" height="30" viewBox="0 0 30 30" fill="none" xmlns="http://www.w3.org/2000/svg">
<path d="M14.9707 0.117188C17.4707 0.117188 19.5117 0.146484 21.0938 0.205078C22.4414 0.263672 23.6426 0.498047 24.6973 0.908203C25.7129 1.29883 26.5918 1.86523 27.334 2.60742C28.0762 3.34961 28.6426 4.22852 29.0332 5.24414C29.4434 6.29883 29.6777 7.5 29.7363 8.84766C29.7949 10.4297 29.8242 12.4707 29.8242 14.9707C29.8242 17.4707 29.7949 19.5117 29.7363 21.0938C29.6777 22.4414 29.4434 23.6426 29.0332 24.6973C28.6426 25.7129 28.0762 26.5918 27.334 27.334C26.5918 28.0762 25.7129 28.6426 24.6973 29.0332C23.6426 29.4434 22.4414 29.6777 21.0938 29.7363C19.5117 29.7949 17.4707 29.8242 14.9707 29.8242C12.4707 29.8242 10.4297 29.7949 8.84766 29.7363C7.5 29.6777 6.29883 29.4434 5.24414 29.0332C4.22852 28.6426 3.34961 28.0762 2.60742 27.334C1.86523 26.5918 1.29883 25.7129 0.908203 24.6973C0.498047 23.6426 0.263672 22.4414 0.205078 21.0938C0.146484 19.5117 0.117188 17.4707 0.117188 14.9707C0.117188 12.4707 0.146484 10.4297 0.205078 8.84766C0.263672 7.5 0.498047 6.29883 0.908203 5.24414C1.29883 4.22852 1.86523 3.34961 2.60742 2.60742C3.34961 1.86523 4.22852 1.29883 5.24414 0.908203C6.29883 0.498047 7.5 0.263672 8.84766 0.205078C10.4297 0.146484 12.4707 0.117188 14.9707 0.117188ZM14.9707 2.05078C12.373 2.05078 10.2539 2.08008 8.61328 2.13867C7.55859 2.17773 6.58203 2.36328 5.68359 2.69531C4.27734 3.28125 3.28125 4.27734 2.69531 5.68359C2.36328 6.58203 2.17773 7.55859 2.13867 8.61328C2.08008 10.2539 2.05078 12.373 2.05078 14.9707C2.05078 17.5684 2.08008 19.6875 2.13867 21.3281C2.17773 22.3828 2.36328 23.3594 2.69531 24.2578C3.28125 25.6641 4.27734 26.6602 5.68359 27.2461C6.58203 27.5781 7.55859 27.7637 8.61328 27.8027C10.2539 27.8613 12.373 27.8906 14.9707 27.8906C17.5684 27.8906 19.6875 27.8613 21.3281 27.8027C22.3828 27.7637 23.3594 27.5781 24.2578 27.2461C25.6641 26.6602 26.6602 25.6641 27.2461 24.2578C27.5781 23.3594 27.7637 22.3828 27.8027 21.3281C27.8613 19.6875 27.8906 17.5684 27.8906 14.9707C27.8906 12.373 27.8613 10.2539 27.8027 8.61328C27.7637 7.55859 27.5781 6.58203 27.2461 5.68359C26.6602 4.27734 25.6641 3.28125 24.2578 2.69531C23.3594 2.36328 22.3828 2.17773 21.3281 2.13867C19.6875 2.08008 17.5684 2.05078 14.9707 2.05078ZM14.9707 20.918C16.6113 20.918 18.0127 20.3369 19.1748 19.1748C20.3369 18.0127 20.918 16.6113 20.918 14.9707C20.918 13.3301 20.3369 11.9287 19.1748 10.7666C18.0127 9.60449 16.6113 9.02344 14.9707 9.02344C13.3301 9.02344 11.9287 9.60449 10.7666 10.7666C9.60449 11.9287 9.02344 13.3301 9.02344 14.9707C9.02344 16.6113 9.60449 18.0127 10.7666 19.1748C11.9287 20.3369 13.3301 20.918 14.9707 20.918ZM14.9707 7.35352C17.0801 7.35352 18.877 8.0957 20.3613 9.58008C21.8457 11.0645 22.5879 12.8613 22.5879 14.9707C22.5879 17.0801 21.8457 18.877 20.3613 20.3613C18.877 21.8457 17.0801 22.5879 14.9707 22.5879C12.8613 22.5879 11.0645 21.8457 9.58008 20.3613C8.0957 18.877 7.35352 17.0801 7.35352 14.9707C7.35352 12.8613 8.0957 11.0645 9.58008 9.58008C11.0645 8.0957 12.8613 7.35352 14.9707 7.35352ZM24.6973 7.06055C24.6973 7.54883 24.5215 7.96387 24.1699 8.30566C23.8184 8.64746 23.3887 8.81836 22.8809 8.81836C22.3926 8.81836 21.9775 8.64746 21.6357 8.30566C21.2939 7.96387 21.123 7.54883 21.123 7.06055C21.123 6.55273 21.2939 6.12305 21.6357 5.77148C21.9775 5.41992 22.3926 5.24414 22.8809 5.24414C23.3691 5.24414 23.7939 5.4248 24.1553 5.78613C24.5166 6.14746 24.6973 6.57227 24.6973 7.06055Z" fill="#B38E64"/>
</svg>
