<svg width="50" height="50" viewBox="0 0 50 50" fill="none" xmlns="http://www.w3.org/2000/svg">
<g clip-path="url(#clip0_21_186)">
<path d="M2.32655 9.75005C1.04205 9.75005 0 10.7915 0 12.0766V38.8235C0 40.1083 1.0422 41.15 2.32655 41.15H47.6735C48.958 41.15 50 40.1085 50 38.8235V12.0765C50 10.7917 48.9578 9.75 47.6735 9.75H2.3265L2.32655 9.75005ZM16.3953 13.5297C19.2493 13.5297 21.8706 14.5227 23.9281 16.1813C22.197 17.7302 20.9058 19.7653 20.2687 22.0719H21.2672C21.8552 20.169 22.9233 18.4748 24.3312 17.1313C25.7391 18.4748 26.8072 20.169 27.3953 22.0719H28.4094C27.7635 19.7774 26.4705 17.7545 24.7406 16.2157C26.8021 14.536 29.4336 13.5297 32.3 13.5297C38.9145 13.5297 44.2765 18.8923 44.2765 25.5078C44.2765 32.1234 38.9145 37.486 32.3 37.486C29.386 37.486 26.714 36.4459 24.6375 34.7156C26.495 33.0996 27.8644 30.9333 28.4906 28.4688H27.514C26.958 30.5373 25.8387 32.377 24.3312 33.8157C22.8237 32.377 21.706 30.5373 21.1499 28.4688H20.2202C20.8501 30.8976 22.2016 33.0336 24.0312 34.6344C21.9585 36.3432 19.297 37.3703 16.3952 37.3703C9.78075 37.3703 4.41875 32.0335 4.41875 25.45C4.41875 18.8665 9.78075 13.5297 16.3953 13.5297ZM31.4015 21.95C29.9625 21.95 28.5625 23.2081 28.5625 25.5703C28.5625 27.1367 29.3187 28.1703 30.8062 28.1703C31.2268 28.1705 31.8969 27.9985 31.8969 27.9985L32.1187 26.6297C32.1187 26.6297 31.5072 26.9391 31.0875 26.9391C30.2032 26.9391 29.8484 26.259 29.8484 25.5282C29.8484 24.0455 30.6092 23.2297 31.4562 23.2297C32.0914 23.2297 32.6015 23.5891 32.6015 23.5891L32.8047 22.2578C32.8047 22.2578 32.0495 21.95 31.4015 21.95H31.4015ZM43.5 22.0657L42.2484 22.0688L41.9797 23.7157C41.9797 23.7157 41.5092 23.0766 40.7734 23.0766C39.6294 23.0766 38.6765 24.4356 38.6765 25.9985C38.6765 27.0073 39.1837 27.9969 40.2234 27.9969C40.9713 27.9969 41.3859 27.4829 41.3859 27.4829L41.3312 27.9219H42.5469L43.5 22.0657ZM7.6531 22.0828L6.65625 27.9531H7.8578L8.6172 23.5266L8.7297 27.9531H9.58905L11.1922 23.5266L10.4812 27.9531H11.7578L12.7422 22.0828H10.7672L9.5375 25.6844L9.47345 22.0829H7.65315L7.6531 22.0828ZM20.2062 22.4641C20.1791 22.4913 19.4797 26.5244 19.4797 27.0156C19.4797 27.7429 19.8873 28.0678 20.4609 28.0625C20.8719 28.059 21.1902 27.9558 21.3375 27.9125C21.3529 27.9084 21.3828 27.9 21.3828 27.9L21.5375 26.85C21.4534 26.85 21.3295 26.886 21.2203 26.886C20.792 26.886 20.7446 26.6581 20.7718 26.4891L21.1172 24.3469H21.7687L21.9265 23.1859H21.3125L21.4375 22.4641H20.2062ZM34.7297 23.0547C33.891 23.0547 33.2484 23.3313 33.2484 23.3313L33.0703 24.4094C33.0703 24.4094 33.601 24.1891 34.4031 24.1891C34.8585 24.1891 35.1922 24.2412 35.1922 24.6203C35.1922 24.8506 35.1515 24.936 35.1515 24.936C35.1515 24.936 34.7914 24.9047 34.625 24.9047C33.5674 24.9047 32.4562 25.3682 32.4562 26.7625C32.4562 27.8611 33.1857 28.1125 33.6375 28.1125C34.5004 28.1125 34.8725 27.5393 34.8922 27.5375L34.8515 28.0157H35.9281L36.4094 24.5657C36.4095 23.1018 35.1627 23.0547 34.7297 23.0547V23.0547ZM14.5343 23.061C13.6926 23.061 13.0469 23.3375 13.0469 23.3375L12.8687 24.4157C12.8687 24.4157 13.4012 24.1953 14.2062 24.1953C14.6633 24.1953 14.9984 24.2476 14.9984 24.6266C14.9984 24.8568 14.9578 24.9422 14.9578 24.9422C14.9578 24.9422 14.5966 24.911 14.4297 24.911C13.368 24.911 12.2531 25.3737 12.2531 26.7672C12.2531 27.8652 12.984 28.1172 13.4375 28.1172C14.3035 28.1172 14.677 27.5439 14.6969 27.5422L14.6562 28.0203H15.7375L16.2203 24.5719C16.2203 23.1089 14.9689 23.0609 14.5343 23.0609V23.061ZM18.3531 23.061C17.4492 23.061 16.5312 23.4258 16.5312 24.6719C16.5312 26.0838 18.0609 25.9412 18.0609 26.5359C18.0609 26.9329 17.634 26.9657 17.3047 26.9657C16.7347 26.9657 16.2221 26.7687 16.2203 26.7782L16.0562 27.8563C16.0857 27.8654 16.4031 28.0078 17.4281 28.0078C17.7033 28.0078 19.2765 28.0777 19.2765 26.4391C19.2765 24.9071 17.8203 25.2108 17.8203 24.5953C17.8203 24.2889 18.0567 24.1922 18.4906 24.1922C18.6629 24.1922 19.3266 24.2469 19.3266 24.2469L19.4797 23.1578C19.4797 23.158 19.0514 23.061 18.3531 23.061H18.3531ZM24.0031 23.061C22.7471 23.0612 21.8172 24.4118 21.8172 25.9375C21.8172 27.6985 22.9823 28.1172 23.975 28.1172C24.8913 28.1172 25.2953 27.9125 25.2953 27.9125L25.514 26.711C25.514 26.711 24.817 27.0172 24.1875 27.0172C22.8462 27.0172 23.0812 26.0188 23.0812 26.0188H25.6203C25.6203 26.0188 25.7844 25.2119 25.7844 24.8828C25.7844 24.0618 25.3746 23.061 24.0031 23.061H24.0031ZM28.5516 23.1125C27.9857 23.1125 27.5656 23.8735 27.5656 23.8735L27.6781 23.175H26.5031L25.7141 27.9969H27.0125C27.3802 25.9378 27.4474 24.2659 28.325 24.5719C28.4786 23.7749 28.6276 23.467 28.7953 23.1297C28.7953 23.1297 28.7165 23.1125 28.5515 23.1125H28.5516ZM39.0718 23.1125C38.5061 23.1125 38.0859 23.8735 38.0859 23.8735L38.1984 23.175H37.0234L36.2343 27.9969H37.5312C37.8991 25.9378 37.968 24.2659 38.8453 24.5719C38.9992 23.7749 39.1481 23.467 39.3156 23.1297C39.3156 23.1297 39.2368 23.1125 39.0719 23.1125H39.0718ZM23.9968 24.1485C24.7102 24.1485 24.5797 24.9537 24.5797 25.0188H23.175C23.175 24.9357 23.3079 24.1485 23.9969 24.1485H23.9968ZM40.9703 24.2422C41.4243 24.2421 41.6578 24.5488 41.6578 25.2703C41.6578 25.925 41.3276 26.8 40.6437 26.8C40.1898 26.8 39.9765 26.4252 39.9765 25.8375C39.9765 24.8766 40.4161 24.2422 40.9703 24.2422H40.9703ZM34.7312 25.8828C34.9164 25.8831 34.9547 25.9011 34.9859 25.9094C34.9814 25.9087 34.9806 25.9095 34.9984 25.9125C35.0219 26.1273 34.8687 27.1344 34.1281 27.1344C33.7463 27.1344 33.6484 26.8308 33.6484 26.6516C33.6484 26.3022 33.8303 25.8828 34.7312 25.8828ZM14.5359 25.8875C14.7463 25.8878 14.7692 25.9113 14.8047 25.9172C14.8282 26.1319 14.6744 27.1375 13.9312 27.1375C13.5479 27.1375 13.4484 26.8353 13.4484 26.6563C13.4484 26.3071 13.6314 25.8875 14.5359 25.8875Z" fill="white"/>
</g>
<defs>
<clipPath id="clip0_21_186">
<rect width="50" height="50" fill="white"/>
</clipPath>
</defs>
</svg>
