<svg width="31" height="30" viewBox="0 0 31 30" fill="none" xmlns="http://www.w3.org/2000/svg">
<g clip-path="url(#clip0_20_178)">
<path d="M30.164 0C29.9882 0 29.7734 0.0488281 29.5195 0.146484L1.54098 12.0117C1.20895 12.168 0.97946 12.3486 0.852507 12.5537C0.725554 12.7588 0.710906 12.9785 0.808562 13.2129C0.906218 13.4473 1.10153 13.6621 1.3945 13.8574L9.30466 18.7793C9.61716 18.9746 9.94919 19.2285 10.3007 19.541C10.6523 19.8535 10.9843 20.1855 11.2968 20.5371C11.6093 20.8887 11.8535 21.2207 12.0293 21.5332L16.7754 29.2969C16.9121 29.5117 17.0586 29.6729 17.2148 29.7803C17.3711 29.8877 17.5273 29.9414 17.6836 29.9414C18.0742 29.9414 18.3769 29.6777 18.5918 29.1504L30.5742 1.20117C30.8672 0.498047 30.7793 0.0976562 30.3105 0H30.164ZM10.3007 17.1094L3.88473 13.125L25.3886 3.98438L11.5312 18.0762C11.082 17.666 10.6718 17.3438 10.3007 17.1094ZM17.5371 26.8066L13.6992 20.5664C13.6406 20.4492 13.5625 20.3223 13.4648 20.1855C13.3672 20.0488 13.2695 19.917 13.1718 19.79C13.0742 19.6631 12.9668 19.5312 12.8496 19.3945L26.7363 5.27344L17.5371 26.8066Z" fill="#B38E64"/>
</g>
<defs>
<clipPath id="clip0_20_178">
<rect width="30" height="30" fill="white" transform="translate(0.75)"/>
</clipPath>
</defs>
</svg>
