<svg width="29" height="30" viewBox="0 0 29 30" fill="none" xmlns="http://www.w3.org/2000/svg">
<g clip-path="url(#clip0_20_180)">
<path d="M25.2379 2.92113C24.4941 2.23988 21.4816 0.049882 14.7729 0.021132C14.7729 0.021132 6.8566 -0.452618 3.00035 3.08613C0.855355 5.23113 0.104104 8.37238 0.0178545 12.2686C-0.0683955 16.1649 -0.164646 23.4674 6.8741 25.4524H6.88035L6.8741 28.4761C6.8741 28.4761 6.82785 29.7011 7.63285 29.9474C8.60535 30.2524 9.18035 29.3199 10.1116 28.3174C10.6216 27.7661 11.3241 26.9586 11.8579 26.3424C14.9166 26.6257 18.0013 26.3903 20.9816 25.6461L20.7941 25.6861C21.7666 25.3699 27.2691 24.6661 28.1591 17.3649C29.0891 9.82738 27.7166 5.07238 25.2379 2.92113ZM26.0529 16.8149C25.2941 22.9086 20.8366 23.2961 20.0166 23.5586C18.2266 24.0136 16.1716 24.2736 14.0554 24.2736C13.4479 24.2736 12.8454 24.2524 12.2491 24.2099L12.3291 24.2149C12.3291 24.2149 9.2816 27.8886 8.33285 28.8436C8.02285 29.1536 7.6816 29.1286 7.68785 28.5099C7.68785 28.1061 7.7116 23.4874 7.7116 23.4874C1.75285 21.8349 2.09785 15.6149 2.16785 12.3661C2.23785 9.11738 2.84785 6.44738 4.6641 4.65488C7.9291 1.69613 14.6504 2.13488 14.6504 2.13488C20.3291 2.15863 23.0479 3.86988 23.6804 4.44363C25.7729 6.23738 26.8391 10.5274 26.0529 16.8136V16.8149ZM17.9141 12.0799V12.0974C17.9115 12.1947 17.8716 12.2873 17.8026 12.3561C17.7337 12.4249 17.641 12.4646 17.5436 12.467C17.4463 12.4694 17.3517 12.4343 17.2795 12.369C17.2072 12.3038 17.1628 12.2132 17.1554 12.1161V12.1149C17.1808 11.8539 17.1493 11.5905 17.0631 11.3429C16.9768 11.0952 16.8379 10.8693 16.6558 10.6806C16.4738 10.4918 16.2529 10.3449 16.0086 10.2498C15.7642 10.1547 15.5021 10.1138 15.2404 10.1299H15.2454C15.1482 10.1224 15.0577 10.0778 14.9924 10.0054C14.9272 9.93306 14.8923 9.8384 14.8948 9.741C14.8974 9.64361 14.9373 9.55092 15.0062 9.48208C15.0752 9.41325 15.168 9.37353 15.2654 9.37113H15.2866H15.2854L15.3716 9.36988C15.7206 9.36977 16.0659 9.44139 16.386 9.5803C16.7062 9.71922 16.9943 9.92246 17.2326 10.1774C17.4709 10.4324 17.6543 10.7336 17.7713 11.0624C17.8883 11.3911 17.9365 11.7405 17.9129 12.0886V12.0811L17.9141 12.0799ZM19.1029 12.7436C19.1616 10.2586 17.6091 8.31363 14.6616 8.09613C14.6105 8.09453 14.5602 8.08262 14.5137 8.06111C14.4673 8.0396 14.4257 8.00894 14.3914 7.97096C14.3571 7.93298 14.3309 7.88846 14.3142 7.84009C14.2975 7.79171 14.2908 7.74046 14.2944 7.68942C14.2981 7.63838 14.3119 7.5886 14.3353 7.54306C14.3586 7.49752 14.3909 7.45716 14.4302 7.4244C14.4695 7.39164 14.515 7.36716 14.564 7.35242C14.613 7.33768 14.6645 7.33299 14.7154 7.33863H14.7141H14.7354C15.4349 7.33861 16.127 7.48157 16.7692 7.75874C17.4115 8.03591 17.9903 8.44144 18.4701 8.95042C18.9499 9.4594 19.3207 10.0611 19.5595 10.7185C19.7984 11.376 19.9003 12.0753 19.8591 12.7736L19.8604 12.7599C19.8537 12.8568 19.8101 12.9474 19.7387 13.0132C19.6673 13.079 19.5734 13.1149 19.4762 13.1136C19.3791 13.1124 19.2862 13.074 19.2165 13.0063C19.1469 12.9387 19.1057 12.8469 19.1016 12.7499V12.7399L19.1029 12.7436ZM21.8529 13.5299V13.5324C21.8478 13.6293 21.8059 13.7206 21.7356 13.7875C21.6654 13.8545 21.5723 13.8921 21.4753 13.8925C21.3782 13.893 21.2847 13.8564 21.2138 13.7901C21.143 13.7238 21.1001 13.633 21.0941 13.5361C21.0641 8.75863 17.8779 6.15738 14.0166 6.12988C13.9669 6.12988 13.9176 6.12009 13.8717 6.10105C13.8257 6.08202 13.784 6.05412 13.7488 6.01895C13.7136 5.98378 13.6857 5.94203 13.6667 5.89607C13.6477 5.85012 13.6379 5.80087 13.6379 5.75113C13.6379 5.70139 13.6477 5.65214 13.6667 5.60619C13.6857 5.56024 13.7136 5.51849 13.7488 5.48331C13.784 5.44814 13.8257 5.42025 13.8717 5.40121C13.9176 5.38218 13.9669 5.37238 14.0166 5.37238C18.3404 5.40238 21.8154 8.38613 21.8504 13.5286L21.8529 13.5299ZM21.1966 19.2774V19.2886C20.5641 20.4024 19.3804 21.6324 18.1616 21.2399L18.1504 21.2224C15.9775 20.4228 13.9407 19.2933 12.1116 17.8736L12.1629 17.9111C11.2527 17.1885 10.4271 16.3653 9.7016 15.4574L9.67785 15.4261C9.02099 14.5993 8.43476 13.7187 7.92535 12.7936L7.87535 12.6949C7.27266 11.7013 6.77299 10.6487 6.3841 9.55363L6.3466 9.43113C5.9541 8.21238 7.17785 7.02863 8.29785 6.39613H8.3091C8.52945 6.25509 8.79404 6.20019 9.05231 6.24192C9.31058 6.28366 9.54441 6.41911 9.7091 6.62238L9.71035 6.62488C9.71035 6.62488 10.4366 7.49113 10.7479 7.91988C11.0404 8.31863 11.4341 8.95738 11.6379 9.31363C11.7913 9.55706 11.8537 9.84687 11.8141 10.1319C11.7746 10.4169 11.6355 10.6787 11.4216 10.8711L11.4204 10.8724L10.7179 11.4349C10.6083 11.5406 10.5237 11.6694 10.4701 11.8118C10.4164 11.9543 10.3952 12.1069 10.4079 12.2586V12.2549C10.7557 13.414 11.3835 14.4698 12.2359 15.3289C13.0883 16.188 14.139 16.8241 15.2954 17.1811L15.3479 17.1949C15.4988 17.2068 15.6506 17.1853 15.7923 17.1319C15.934 17.0786 16.0622 16.9946 16.1679 16.8861L16.7304 16.1836C16.9236 15.9688 17.1867 15.8293 17.4731 15.7902C17.7594 15.7511 18.0503 15.8147 18.2941 15.9699L18.2891 15.9674C19.3054 16.5461 20.1841 17.1824 20.9854 17.9036L20.9716 17.8911C21.1749 18.0532 21.3101 18.2854 21.3508 18.5422C21.3916 18.7989 21.3348 19.0616 21.1916 19.2786L21.1941 19.2749L21.1966 19.2774Z" fill="#B38E64"/>
</g>
<defs>
<clipPath id="clip0_20_180">
<rect width="28.75" height="30" fill="white"/>
</clipPath>
</defs>
</svg>
